<svg width="28" height="57" viewBox="0 0 28 57" fill="none" xmlns="http://www.w3.org/2000/svg">
<path d="M14.5065 33.0001C14.5065 33.0001 8.4295 38.7388 7.92665 39.9572C7.4238 41.1755 5.40801 56.25 5.40801 56.25L10.972 56.2649C10.972 56.2649 9.4591 44.9899 14.5376 39.0723L14.5065 33.0001Z" fill="#513119"/>
<path d="M14.3789 33.4121C16.6895 33.0044 18.808 31.7191 19.2974 29.925C19.7391 28.3007 18.9032 26.7717 18.21 25.5008C17.2382 23.7067 15.947 22.7009 15.3489 22.2456C13.6771 20.968 11.9917 20.4447 10.9248 20.2068C9.38891 19.1195 8.37632 17.9778 7.75789 17.169C6.69093 15.7827 5.73951 14.5254 5.89581 13.0031C6.01814 11.7731 6.84044 10.9304 7.32974 10.4411C10.6937 7.07711 19.2566 5.63637 20.6905 5.41211C18.3391 6.0849 16.5042 6.87323 15.2266 7.49166C13.3305 8.40911 12.5082 9.03433 11.9714 9.48966C10.6937 10.5838 9.57919 11.5352 9.49764 12.874C9.3889 14.607 10.9995 15.9866 12.1888 16.9923C13.7723 18.3379 15.3965 18.9292 16.3547 19.2078C16.912 19.5952 17.7275 20.2 18.6517 21.0291C19.875 22.1301 20.473 22.8912 20.9488 22.7213C21.3905 22.565 21.4245 21.6951 21.4788 21.2874C21.6691 19.8874 22.206 17.9302 23.7283 15.5584C22.6205 19.9826 22.7021 22.1776 23.0351 23.3669C23.0351 23.3669 23.0827 23.53 23.7283 25.793C23.939 27.125 23.8778 28.26 23.7283 29.1774C22.6477 35.6403 15.3983 38.9704 14.3789 39.4121" fill="#513119"/>
<path d="M18.6071 5.83097C18.4236 5.81738 18.2197 5.7902 18.0022 5.73583C17.2479 5.55234 16.711 5.15818 16.4256 4.92032C16.4256 4.92032 16.8877 5.01546 16.9557 4.77081C17.0236 4.51936 16.2217 4.22035 16.1401 2.22915C16.1401 2.22915 17.2479 3.133 17.3974 2.89514C17.5469 2.65729 17.1663 2.38545 17.2479 1.44761C17.2479 1.44761 17.6216 1.92332 17.7983 1.82818C17.975 1.73304 19.7692 0.584533 19.776 0.0612482V0.0136719C19.8099 0.0136719 19.8235 2.16798 20.2924 2.27671C20.374 2.2971 20.4284 2.24274 20.6526 2.07964C21.0264 1.81459 21.3662 1.62431 21.6041 1.49519C21.6041 1.49519 21.5361 2.32428 21.7128 2.18157C21.8895 2.03886 24.7981 2.65049 24.7981 2.65049C24.7981 2.65049 22.9836 4.43781 23.1671 4.73004C23.3574 5.01547 23.5069 5.05624 23.5069 5.05624C23.5069 5.05624 22.671 5.19895 22.3312 5.33487C21.9914 5.47079 23.4186 6.59212 23.5409 6.47659C23.6632 6.36786 21.8963 6.90472 22.0186 7.21054C22.1409 7.50956 22.2293 7.66588 22.2293 7.66588C22.2293 7.66588 21.4953 7.2853 21.1283 7.49598C20.7614 7.70665 21.339 8.06683 21.339 8.06683C20.1905 8.15518 19.1643 7.83577 18.7973 7.29889C18.7498 7.22414 18.6003 6.99307 18.5391 6.68046C18.4643 6.29309 18.5527 5.99408 18.6139 5.83777L18.6071 5.83097Z" fill="#4D6B42"/>
<path d="M23.4527 16.6164C23.3508 16.5892 23.2352 16.5484 23.1197 16.494C22.712 16.3037 22.4469 16.0251 22.3042 15.862C22.3042 15.862 22.5556 15.9707 22.6236 15.8348C22.6848 15.7057 22.2634 15.4475 22.4129 14.3261C22.4129 14.3261 22.9498 14.9582 23.0586 14.8426C23.1673 14.7271 22.977 14.53 23.1197 14.0135C23.1197 14.0135 23.2828 14.3193 23.3915 14.2854C23.5003 14.2514 24.6352 13.8164 24.6896 13.5174C24.6896 13.5174 24.6896 13.4902 24.6964 13.4902C24.7167 13.4902 24.5061 14.6999 24.7643 14.8086C24.8119 14.829 24.8459 14.8086 24.9886 14.7407C25.2264 14.6319 25.4371 14.564 25.5866 14.5232C25.5866 14.5232 25.4643 14.9785 25.5798 14.9174C25.6954 14.8562 27.2856 15.5222 27.2856 15.5222C27.2856 15.5222 26.0759 16.3173 26.1507 16.5008C26.2254 16.6843 26.3138 16.7183 26.3138 16.7183C26.3138 16.7183 25.8245 16.7047 25.6138 16.7455C25.4031 16.7862 26.1031 17.5678 26.1847 17.5202C26.2662 17.4726 25.206 17.5746 25.2468 17.7581C25.2876 17.9416 25.3216 18.0367 25.3216 18.0367C25.3216 18.0367 24.941 17.7445 24.7167 17.8192C24.4857 17.894 24.7779 18.159 24.7779 18.159C24.1187 18.0775 23.5614 17.7853 23.4119 17.4455C23.3915 17.3979 23.3304 17.2552 23.3304 17.0717C23.3304 16.8474 23.4051 16.6911 23.4595 16.6096L23.4527 16.6164Z" fill="#45593E"/>
<path d="M22.0525 17.3636C22.066 17.4927 22.066 17.6354 22.0525 17.7985C21.9981 18.3422 21.7602 18.7431 21.6039 18.9606C21.6039 18.9606 21.6243 18.6276 21.4204 18.6004C21.2166 18.5732 21.0806 19.1577 19.538 19.348C19.538 19.348 20.1088 18.5053 19.9049 18.4237C19.7011 18.3354 19.538 18.6208 18.7904 18.6276C18.7904 18.6276 19.1166 18.3354 19.0215 18.2199C18.9263 18.1043 17.8118 16.9218 17.4041 16.9626H17.3633C17.3633 16.9422 19.0419 16.7791 19.069 16.4461C19.069 16.385 19.0215 16.351 18.872 16.2083C18.6205 15.9636 18.4302 15.7393 18.3011 15.583C18.3011 15.583 18.9535 15.5694 18.8244 15.4607C18.6953 15.3452 18.8176 13.2656 18.8176 13.2656C18.8176 13.2656 20.435 14.4141 20.6389 14.2578C20.8428 14.1083 20.8496 13.9996 20.8496 13.9996C20.8496 13.9996 21.0671 14.5772 21.2098 14.8015C21.3525 15.0258 22.0592 13.952 21.9573 13.8773C21.8554 13.8025 22.4942 14.9986 22.7117 14.8898C22.9359 14.7811 23.0379 14.7064 23.0379 14.7064C23.0379 14.7064 22.8272 15.25 23.0379 15.4879C23.2485 15.7257 23.4592 15.2976 23.4592 15.2976C23.6699 16.0927 23.5408 16.8403 23.167 17.1325C23.1194 17.1733 22.9495 17.2888 22.7117 17.3568C22.4194 17.4383 22.1748 17.3975 22.0457 17.3636H22.0525Z" fill="#4D6B42"/>
<path d="M17.4995 5.68819C17.4384 5.8241 17.3568 5.97361 17.2481 6.12992C16.8811 6.66 16.4258 6.96581 16.1607 7.11532C16.1607 7.11532 16.3714 6.78232 16.2015 6.66C16.0316 6.53767 15.5627 7.07455 14.02 6.57845C14.02 6.57845 15.0394 5.97362 14.9035 5.79692C14.7676 5.61343 14.4482 5.83769 13.7482 5.50469C13.7482 5.50469 14.2171 5.34839 14.2035 5.18528C14.1899 5.02218 13.8365 3.30962 13.4288 3.16011C13.4288 3.16011 13.388 3.14651 13.3948 3.13972C13.4084 3.11253 15.0598 3.71057 15.2773 3.37757C15.318 3.31641 15.2909 3.26205 15.2365 3.04458C15.1414 2.6776 15.0938 2.36498 15.0734 2.14751C15.0734 2.14751 15.685 2.43294 15.6306 2.25625C15.5763 2.07955 16.8947 0 16.8947 0C16.8947 0 17.7306 1.90966 18.0024 1.8417C18.2811 1.78053 18.349 1.6718 18.349 1.6718C18.349 1.6718 18.2131 2.35819 18.2199 2.66401C18.2267 2.96982 19.5043 2.17469 19.4499 2.05237C19.4024 1.93004 19.2936 3.44554 19.5587 3.43874C19.8237 3.43194 19.9664 3.40476 19.9664 3.40476C19.9664 3.40476 19.4568 3.86688 19.5111 4.20667C19.5655 4.54647 20.0072 4.20667 20.0072 4.20667C19.7354 5.11732 19.1849 5.8241 18.6684 5.96002C18.6005 5.98041 18.3762 6.02798 18.118 5.98721C17.7985 5.93964 17.5947 5.78332 17.4927 5.69498L17.4995 5.68819Z" fill="#57592E"/>
<path d="M6.73476 11.3493C6.77553 11.526 6.81631 11.7231 6.82311 11.9473C6.86388 12.7085 6.61243 13.3201 6.44254 13.6463C6.44254 13.6463 6.39497 13.1842 6.10274 13.1842C5.81052 13.1842 5.73576 14.0269 3.59505 14.6181C3.59505 14.6181 4.22708 13.3337 3.92126 13.2589C3.61544 13.1842 3.43874 13.6123 2.38538 13.7754C2.38538 13.7754 2.77954 13.2997 2.62324 13.157C2.46693 13.0143 0.632025 11.6143 0.0543729 11.7503C0.0543729 11.7503 1.47453e-05 11.7638 1.47453e-05 11.757C-0.00678117 11.7299 2.33781 11.1522 2.30383 10.6833C2.30383 10.6017 2.21547 10.561 1.97081 10.3911C1.55626 10.1056 1.24366 9.8338 1.02619 9.64351C1.02619 9.64351 1.95044 9.49401 1.73977 9.36489C1.52909 9.23577 1.25046 6.32031 1.25046 6.32031C1.25046 6.32031 3.79214 7.57076 4.05038 7.31931C4.30183 7.06786 4.29503 6.91156 4.29503 6.91156C4.29503 6.91156 4.72318 7.66591 4.98142 7.95134C5.23966 8.23677 6.0008 6.59894 5.84449 6.5106C5.68819 6.42225 6.84349 7.95134 7.13571 7.76105C7.42794 7.57077 7.56386 7.44164 7.56386 7.44164C7.56386 7.44164 7.38716 8.23676 7.73376 8.52898C8.08035 8.82121 8.28422 8.1824 8.28422 8.1824C8.75314 9.24256 8.73276 10.3027 8.27064 10.7852C8.20948 10.8532 7.99881 11.0503 7.6794 11.193C7.27844 11.3697 6.92504 11.3629 6.73476 11.3425V11.3493Z" fill="#6D6131"/>
</svg>
