<svg width="117" height="140" viewBox="0 0 117 140" fill="none" xmlns="http://www.w3.org/2000/svg">
<path d="M6.48494 122.109C7.03874 122.226 18.0556 124.273 23.4853 121.522C25.5683 121.49 26.9941 120.831 29.1689 119.81C31.0974 118.906 32.0639 118.431 32.5832 117.501C32.7628 117.188 33.0934 116.466 32.8924 115.083C32.5741 112.935 31.2689 111.28 29.9456 109.821C28.4258 108.146 26.0775 105.866 22.6289 103.476C22.8408 101.801 23.0442 100.117 23.2561 98.4423C24.7909 98.9424 26.8536 99.7363 29.0707 100.996C29.9555 101.502 31.9081 102.671 34.029 104.562C39.8005 109.71 45.1836 118.736 42.2785 121.846C42.111 122.028 41.5526 122.569 40.7209 123.113C38.9285 124.273 37.1181 124.613 35.9952 124.848C31.472 125.821 31.9057 126.624 27.6524 127.528C26.0584 127.869 24.8459 129.439 21.7287 129.461C21.7613 130.122 5.14561 129.989 5.06077 129.991C4.94706 129.999 -24.2643 124.122 -18.5481 123.239L-17.9002 116.259L6.48494 122.109Z" fill="#51311A"/>
<path d="M18.1381 42.4843C18.4053 42.5467 18.7071 42.6406 19.0327 42.7838C20.1271 43.2619 20.8307 43.9954 21.1845 44.4424C21.1845 44.4424 20.5122 44.1823 20.3376 44.5426C20.1621 44.9121 21.2952 45.582 20.8472 48.6839C20.8472 48.6839 19.4217 47.0081 19.1368 47.3393C18.8426 47.6696 19.3405 48.1864 18.9432 49.6272C18.9432 49.6272 18.5206 48.8068 18.2201 48.9012C17.9195 48.9957 14.8685 50.3312 14.7168 51.1548C14.7168 51.1548 14.7099 51.2294 14.7005 51.2285C14.6539 51.2242 15.2465 47.8816 14.5675 47.5927C14.4496 47.5441 14.3485 47.6195 13.9638 47.8096C13.3124 48.135 12.7563 48.3469 12.3581 48.4794C12.3581 48.4794 12.6923 47.2116 12.3933 47.3909C12.085 47.5693 7.84425 45.9051 7.84425 45.9051C7.84425 45.9051 11.1092 43.5823 10.9108 43.0839C10.7115 42.5948 10.4852 42.4985 10.4852 42.4985C10.4852 42.4985 11.7952 42.479 12.3529 42.3519C12.9105 42.2249 11.0624 40.1333 10.8517 40.2738C10.6317 40.4133 13.473 40.0183 13.3688 39.5192C13.2738 39.021 13.175 38.7671 13.175 38.7671C13.175 38.7671 14.1764 39.5377 14.7912 39.303C15.4059 39.0683 14.6334 38.366 14.6334 38.366C16.3988 38.5111 17.8719 39.269 18.2664 40.1903C18.3204 40.3177 18.4724 40.7083 18.4816 41.2174C18.4898 41.8393 18.27 42.2801 18.1271 42.5021L18.1381 42.4843Z" fill="#45593E"/>
<path d="M20.3424 97.314C20.341 97.6338 20.3259 97.9995 20.2513 98.3973C20.0128 99.7492 19.3755 100.735 18.9689 101.262C18.9689 101.262 19.074 100.434 18.6033 100.334C18.1326 100.233 17.687 101.689 13.9787 101.994C13.9787 101.994 15.5047 99.9519 15.0377 99.7109C14.5706 99.4699 14.1196 100.172 12.3482 100.092C12.3482 100.092 13.1751 99.3968 12.978 99.0868C12.7809 98.7767 10.3568 95.6905 9.37427 95.7311C9.37427 95.7311 9.27923 95.7411 9.28096 95.7224C9.28616 95.6664 13.2963 95.4552 13.4302 94.6206C13.4534 94.4721 13.3399 94.3769 13.0081 93.9979C12.4468 93.3528 12.0491 92.77 11.7767 92.3589C11.7767 92.3589 13.3343 92.4094 13.0422 92.1093C12.7501 91.8092 13.4413 86.5935 13.4413 86.5935C13.4413 86.5935 17.0617 89.6684 17.5748 89.3113C18.088 88.9542 18.1326 88.676 18.1326 88.676C18.1326 88.676 18.532 90.1531 18.8354 90.7366C19.1389 91.32 21.0198 88.6994 20.7937 88.4995C20.5684 88.2904 21.8436 91.3829 22.393 91.1421C22.9424 90.9013 23.2126 90.7288 23.2126 90.7288C23.2126 90.7288 22.6178 92.0665 23.068 92.6918C23.5181 93.3171 24.0954 92.2695 24.0954 92.2695C24.4436 94.2971 23.9896 96.1467 23.0499 96.8406C22.919 96.932 22.507 97.2138 21.9298 97.3484C21.2176 97.5176 20.6367 97.3884 20.3442 97.2953L20.3424 97.314Z" fill="#4D6B42"/>
<path d="M17.931 102.106C18.1847 102.111 18.4731 102.147 18.7869 102.214C19.8478 102.444 20.5866 103.002 20.9779 103.349C20.9779 103.349 20.3299 103.233 20.2282 103.618C20.1265 104.004 21.2466 104.409 21.3036 107.445C21.3036 107.445 19.7687 106.136 19.555 106.511C19.3413 106.887 19.87 107.275 19.7171 108.719C19.7171 108.719 19.2077 108.022 18.9588 108.169C18.7099 108.315 16.144 110.204 16.1264 111.002L16.1194 111.077C16.0728 111.073 16.1147 107.782 15.4582 107.656C15.3378 107.635 15.2638 107.722 14.9486 107.975C14.409 108.415 13.9375 108.728 13.5892 108.931C13.5892 108.931 13.707 107.662 13.4597 107.894C13.2124 108.125 9.13024 107.388 9.13024 107.388C9.13024 107.388 11.7396 104.525 11.4782 104.096C11.2262 103.667 11.0048 103.619 11.0048 103.619C11.0048 103.619 12.1881 103.343 12.6704 103.114C13.1528 102.886 11.1756 101.272 10.9997 101.444C10.8237 101.616 13.3208 100.671 13.1647 100.224C13.0001 99.7663 12.8792 99.5481 12.8792 99.5481C12.8792 99.5481 13.9031 100.076 14.4247 99.7292C14.9463 99.3823 14.1463 98.8751 14.1463 98.8751C15.7664 98.6585 17.2046 99.0837 17.7053 99.8737C17.7705 99.9833 17.9734 100.332 18.0523 100.8C18.1487 101.383 18.0206 101.851 17.9319 102.097L17.931 102.106Z" fill="#45593E"/>
<path d="M37.2342 51.7203C45.7478 52.5106 53.29 46.2497 54.0804 37.7362C54.8707 29.2227 48.6098 21.6804 40.0963 20.89C31.5827 20.0997 24.0405 26.3606 23.2501 34.8741C22.4598 43.3877 28.7207 50.93 37.2342 51.7203Z" fill="#FFF8F3" stroke="#1D1D1B" stroke-width="0.5" stroke-miterlimit="10"/>
<path d="M37.8431 45.1604C42.6255 45.6044 46.8624 42.0874 47.3063 37.3049C47.7503 32.5225 44.2333 28.2857 39.4509 27.8417C34.6684 27.3977 30.4316 30.9148 29.9876 35.6972C29.5437 40.4796 33.0607 44.7164 37.8431 45.1604Z" fill="#EDE1D9"/>
<path d="M38.4611 33.9425L45.6582 30.0178L40.999 36.9169L38.5127 33.9944" fill="#4D4C4C"/>
<path d="M38.5135 39.0487L31.3485 43.0328L35.945 36.0997L38.4627 38.9875" fill="#4D4C4C"/>
<path d="M36.1563 36.5613L31.8638 29.5747L38.9952 33.8602L36.2183 36.5012" fill="#4D4C4C"/>
<path d="M41.1894 36.7935L44.9366 44.0778L38.1549 39.2694L41.1282 36.8443" fill="#4D4C4C"/>
<path d="M36.1421 37.426L39.4177 23.735L40.705 37.8496L36.2354 37.4347" fill="#A12734"/>
<path d="M40.6863 35.6172L37.778 47.9871L36.6646 35.2439L40.6116 35.6103" fill="#383847"/>
<path d="M39.1993 38.4534L26.5556 35.4538L39.5857 34.2917L39.2071 38.3694" fill="#383847"/>
<path d="M38.4551 34.0078L51.6812 37.2215L38.0358 38.5241L38.4464 34.1011" fill="#383847"/>
<path d="M38.4478 38.638C41.4524 38.9169 41.8856 34.2513 38.8809 33.9724C35.8763 33.6935 35.4432 38.359 38.4478 38.638Z" fill="black"/>
<path d="M49.4232 27.3559C48.9783 28.0953 48.3296 28.5994 47.4981 28.842C47.9439 28.0933 48.5918 27.5985 49.4232 27.3559Z" fill="#3C3C3B"/>
<path d="M28.3242 26.2346C29.1445 26.5177 29.7726 27.0463 30.1713 27.817C29.3502 27.5432 28.723 27.0053 28.3242 26.2346Z" fill="#3C3C3B"/>
<path d="M27.9435 45.4451C28.407 44.7074 29.0634 44.2228 29.9024 43.9997C29.4482 44.7382 28.7825 45.222 27.9435 45.4451Z" fill="#3C3C3B"/>
<path d="M48.1065 47.0158C47.322 46.6514 46.7559 46.0627 46.4268 45.2515C47.2112 45.6159 47.7765 46.2139 48.1065 47.0158Z" fill="#3C3C3B"/>
<path d="M25.8853 30.5071C26.7508 30.6062 27.4674 30.9926 28.0266 31.6558C27.1611 31.5567 26.4445 31.1704 25.8853 30.5071Z" fill="#B2B2B2"/>
<path d="M33.2251 22.8215C33.8888 23.3722 34.2919 24.0963 34.3912 24.952C33.7181 24.4004 33.3337 23.6781 33.2251 22.8215Z" fill="#B2B2B2"/>
<path d="M44.8733 23.4605C44.8021 24.3287 44.442 25.0665 43.805 25.6469C43.8762 24.7788 44.2354 24.0503 44.8733 23.4605Z" fill="#B2B2B2"/>
<path d="M51.545 31.8729C50.8902 32.4423 50.1206 32.7282 49.2583 32.6952C49.9038 32.125 50.6818 31.8492 51.545 31.8729Z" fill="#B2B2B2"/>
<path d="M51.2232 42.1386C50.36 42.1149 49.6001 41.7904 48.989 41.1788C49.8522 41.2025 50.6121 41.527 51.2232 42.1386Z" fill="#B2B2B2"/>
<path d="M43.2958 49.7781C42.6746 49.1749 42.3199 48.4366 42.2783 47.5674C42.9097 48.1621 43.2449 48.9081 43.2958 49.7781Z" fill="#B2B2B2"/>
<path d="M32.348 48.7899C32.5022 47.9389 32.9428 47.2462 33.6399 46.7278C33.4856 47.5788 33.0451 48.2715 32.348 48.7899Z" fill="#B2B2B2"/>
<path d="M25.2265 40.4403C25.8814 39.871 26.651 39.585 27.5132 39.618C26.8677 40.1883 26.0897 40.464 25.2265 40.4403Z" fill="#B2B2B2"/>
<path d="M26.7048 106.148C25.3425 105.513 18.6071 102.234 18.5797 97.4595C18.5694 95.7456 19.4228 94.4601 19.9222 93.7442C26.2036 84.6804 32.7195 83.8359 35.6044 77.4968C38.6078 70.8957 37.2196 59.3882 36.1164 56.8764C36.0234 56.6607 35.1785 54.8129 35.891 54.032C36.2269 53.6584 36.9382 53.4986 36.896 53.3441C36.8758 53.2575 36.6365 53.3012 36.4594 53.1812C36.1577 52.9838 36.147 52.3899 36.3267 51.5689C36.3831 51.3671 36.4497 51.1568 36.5061 50.955C37.1009 50.9349 37.7449 50.8912 38.4399 50.8051C39.4778 50.6756 40.4098 50.4704 41.2112 50.253C42.0443 52.9373 42.6739 55.584 43.1042 58.1463C44.6328 67.2292 43.6621 75.2519 40.5146 80.0608C39.2314 82.0216 34.2965 88.4434 30.9687 90.3274C30.6204 90.5303 29.0755 91.3563 27.4765 92.9678C26.6044 93.8469 25.9995 94.6848 25.6277 95.2432C24.5561 96.1414 24.2504 97.6094 24.8252 98.7169C25.5116 100.042 27.1014 100.152 27.1769 100.149C27.0195 102.149 26.8621 104.148 26.7039 106.157L26.7048 106.148Z" fill="#51311A"/>
<path d="M44.4314 72.1153C45.2353 71.4653 46.6879 70.1131 47.4667 67.9078C47.773 67.0421 47.9034 66.2448 47.9641 65.5916C47.9641 65.5916 45.8601 71.7303 43.0704 69.9467L42.1334 71.0173L42.4356 72.73C43.1037 72.5285 43.7633 72.3168 44.4314 72.1153Z" fill="#51311A"/>
<path d="M20.2027 39.0053C20.2027 39.0053 18.4841 39.2693 17.9531 40.5282C17.6019 41.3709 17.9736 42.2336 18.7877 43.8057C20.9669 48.0079 21.6807 48.3283 22.5537 50.5834C23.2367 52.3503 22.9833 52.6468 23.8415 54.6558C24.5214 56.253 25.2827 57.4813 25.8292 58.285C27.6979 57.6208 30.6092 56.5735 34.1786 55.2296C39.0148 53.4198 39.896 53.1533 41.8647 52.5267C44.6969 51.6226 45.3401 51.9929 51.1083 51.2954C53.3453 51.0231 56.6738 50.5509 60.7428 49.7052C62.3634 49.6862 64.2281 49.7746 66.2816 50.0594C68.7898 50.4145 70.9684 50.9744 72.7583 51.5641C72.7583 51.5641 82.5567 59.2595 88.5216 59.4839C89.7967 59.5363 92.5151 59.5534 93.4531 57.9652C93.677 57.5813 93.7405 57.2013 93.7656 56.9307C94.0392 56.7208 94.4716 56.4221 95.0254 56.1347C97.2522 54.958 99.4021 55.0164 99.9951 55.0149C101.785 55.0022 104.641 54.3451 109.326 51.5236C109.326 51.5236 102.759 54.3398 99.0247 52.6943C95.2905 51.0488 94.1648 52.7325 94.1648 52.7325C94.1648 52.7325 91.9818 55.3628 89.3603 55.7218C86.7379 56.0901 70.5646 45.5912 70.5646 45.5912C70.5646 45.5912 70.3707 44.9426 69.709 44.467C68.7922 43.7984 67.3694 44.2216 64.63 45.0402C61.2903 46.0384 61.4142 46.0217 61.3098 46.0308C57.7131 46.5534 54.1386 44.8098 54.1386 44.8098C54.428 44.7331 54.8551 44.594 55.2604 44.2833C56.1814 43.5877 56.2001 42.6765 56.7702 41.4024C57.1638 40.5072 57.7362 39.8168 58.8817 38.4267C59.6453 37.4999 60.3036 36.6952 61.2111 35.9418C62.0465 35.257 63.5841 34.2045 66.0092 33.6296C66.8957 33.7119 67.8976 33.7673 68.8683 34.1586C70.8191 34.942 73.8047 36.7439 77.95 40.8557C78.7947 41.4894 80.02 42.2808 81.647 42.9024C83.129 43.4635 84.4529 43.6993 85.4514 43.792C85.8699 43.6426 86.5636 43.3682 87.4162 43.005C91.8394 41.0816 92.9503 39.5565 96.2321 38.6753C97.9307 38.2212 98.7711 37.9886 99.8872 38.2334C99.8872 38.2334 101.612 38.61 105.891 43.3084C105.891 43.3084 102.833 36.2011 97.8582 35.7581C97.8582 35.7581 83.4291 41.3455 78.6668 36.8846C78.6668 36.8846 71.8489 33.6823 70.3635 32.2456C68.8781 30.8089 66.233 27.9752 62.8837 30.9019C59.4316 33.9225 57.4571 36.2333 56.5823 35.8227C56.0864 35.5884 56.4835 34.6559 55.6644 33.5446C55.1202 32.8164 54.5745 32.9163 53.7096 32.1961C52.9489 31.5702 52.5785 30.8958 52.1769 30.1526C51.4938 28.8939 49.7394 25.6911 50.6735 22.6249C51.5912 19.6325 54.3597 19.2119 54.3423 16.7633C54.3362 15.511 53.6585 14.4975 53.0981 13.8431C51.2452 12.9182 49.3829 11.9924 47.5308 11.0581C52.1728 13.6725 53.1114 15.322 52.9176 16.3957C52.6338 17.9317 50.273 17.7126 48.7137 20.316C47.5987 22.1889 47.6583 24.2838 47.7092 26.0673C47.7461 27.1907 47.7815 28.634 48.4563 30.2872C49.5381 32.9288 51.5426 34.4513 52.6442 35.1559C52.8235 35.4549 54.2738 37.9801 53.12 40.5741C52.607 41.7406 51.77 42.4441 51.2764 42.7935C50.7961 43.7089 49.9648 44.9588 48.5321 45.6917C47.0501 46.4482 46.1966 46.0113 43.9535 46.3489C40.5851 46.8456 40.8101 48.0712 37.6659 48.4852C33.7791 49.395 31.8362 49.8452 30.6268 49.5917C27.1555 48.8648 25.411 44.9476 24.9201 43.8479C24.2189 42.2769 24.0044 40.8359 23.9426 39.8796C26.5214 37.0414 28.1377 34.3303 29.1282 32.3799C30.5777 29.5404 31.9098 26.85 31.8624 23.2033C31.8447 21.3664 31.4751 19.8733 31.1639 18.8656C30.558 17.5859 29.0064 14.8348 25.8279 13.1844C24.8311 12.6684 23.8806 12.3637 23.0597 12.1839C23.7708 12.5323 26.2008 13.8308 27.4272 16.7399C28.1908 18.552 28.1427 20.1851 28.063 21.0436C28.275 19.7739 28.4776 18.5033 28.6896 17.2336C29.3175 18.986 29.9076 21.4501 29.6763 24.3462C28.991 33.1484 21.4327 38.2254 20.2511 38.991L20.2027 39.0053Z" fill="#51311A"/>
<path d="M23.64 12.3132C23.6862 12.5245 23.729 12.7732 23.7319 13.0464C23.7581 13.9806 23.4174 14.7113 23.1918 15.1138C23.1918 15.1138 23.1504 14.5453 22.7746 14.5387C22.3996 14.5227 22.2856 15.5474 19.516 16.1844C19.516 16.1844 20.3648 14.6444 19.9705 14.5325C19.5846 14.4308 19.3486 14.9453 17.9883 15.1014C17.9883 15.1014 18.5112 14.5382 18.3113 14.3596C18.1114 14.1811 15.8121 12.3865 15.0737 12.5344C15.0737 12.5344 15.0067 12.547 14.9973 12.5461C14.9915 12.5079 18.0029 11.9028 17.9811 11.3267C17.9719 11.2223 17.8728 11.1754 17.5728 10.9594C17.0517 10.591 16.6596 10.2534 16.3911 10.0026C16.3911 10.0026 17.5809 9.85893 17.3139 9.69298C17.047 9.52702 16.795 5.95546 16.795 5.95546C16.795 5.95546 20.0033 7.58973 20.3415 7.29172C20.6704 6.99285 20.6691 6.80451 20.6691 6.80451C20.6691 6.80451 21.1933 7.74726 21.5082 8.10591C21.8232 8.46455 22.8536 6.48965 22.6569 6.37728C22.4603 6.26491 23.8914 8.18597 24.2702 7.95762C24.6482 7.73859 24.8317 7.58623 24.8317 7.58623C24.8317 7.58623 24.5821 8.55127 25.0091 8.92031C25.4453 9.29021 25.7242 8.51612 25.7242 8.51612C26.2893 9.82973 26.2249 11.132 25.6163 11.7061C25.5339 11.7831 25.2577 12.021 24.8476 12.1806C24.3305 12.3773 23.8715 12.3535 23.6391 12.3225L23.64 12.3132Z" fill="#313C2D"/>
<path d="M23.9069 12.7896C24.1267 12.7536 24.3737 12.7294 24.6545 12.7461C25.5919 12.7861 26.2988 13.1811 26.6801 13.4329C26.6801 13.4329 26.1057 13.4361 26.071 13.8093C26.0364 14.1826 27.0448 14.3703 27.49 17.1787C27.49 17.1787 26.007 16.2222 25.8773 16.6054C25.7476 16.9887 26.2401 17.2603 26.302 18.6213C26.302 18.6213 25.7795 18.0646 25.5841 18.2441C25.3886 18.4236 23.4457 20.5961 23.5359 21.348C23.5359 21.348 23.5485 21.415 23.5383 21.4235C23.5001 21.4294 23.1064 18.3717 22.5328 18.3655C22.4302 18.356 22.3731 18.4636 22.1393 18.7525C21.7362 19.2421 21.3723 19.613 21.1046 19.8611C21.1046 19.8611 21.0373 18.6596 20.8536 18.9155C20.6698 19.1714 17.0834 19.1772 17.0834 19.1772C17.0834 19.1772 18.9415 16.0933 18.6732 15.739C18.3956 15.3838 18.2081 15.3758 18.2081 15.3758C18.2081 15.3758 19.1821 14.9204 19.567 14.6267C19.9519 14.333 18.046 13.1679 17.9243 13.3636C17.7933 13.5585 19.815 12.2592 19.6164 11.8643C19.4178 11.4694 19.2849 11.2782 19.2849 11.2782C19.2849 11.2782 20.2244 11.6007 20.6299 11.1866C21.0252 10.7809 20.2758 10.4384 20.2758 10.4384C21.6274 9.97099 22.9125 10.1185 23.445 10.7703C23.5118 10.8612 23.7302 11.145 23.86 11.5712C24.0185 12.0941 23.9668 12.5505 23.9162 12.7905L23.9069 12.7896Z" fill="#45593E"/>
<path d="M18.2419 7.70846C18.34 7.86815 18.4448 8.0567 18.5284 8.27151C18.8265 9.01447 18.7811 9.70671 18.7269 10.0876C18.7269 10.0876 18.5232 9.64514 18.2414 9.74133C17.9502 9.83664 18.1624 10.694 16.2619 12.0046C16.2619 12.0046 16.4471 10.5159 16.1247 10.5425C15.8022 10.569 15.7758 11.0559 14.7873 11.5665C14.7873 11.5665 15.0124 10.9662 14.8141 10.8725C14.6157 10.7788 12.3349 10.0024 11.815 10.3306C11.815 10.3306 11.7649 10.3636 11.7658 10.3543C11.7497 10.3245 13.8522 8.9668 13.6681 8.51678C13.6377 8.43866 13.5452 8.42068 13.2425 8.3361C12.7388 8.18582 12.3395 8.02638 12.0682 7.90709C12.0682 7.90709 12.9294 7.45057 12.6716 7.38899C12.4231 7.32828 11.1677 4.52942 11.1677 4.52942C11.1677 4.52942 14.0864 4.92274 14.2491 4.58961C14.4118 4.25648 14.351 4.10026 14.351 4.10026C14.351 4.10026 15.0286 4.70903 15.3778 4.90145C15.727 5.09386 15.9206 3.21069 15.7349 3.18403C15.55 3.14805 17.204 4.28981 17.4192 3.9992C17.6437 3.70946 17.7348 3.5391 17.7348 3.5391C17.7348 3.5391 17.8257 4.38517 18.2708 4.55825C18.7066 4.73046 18.6969 4.02369 18.6969 4.02369C19.5173 4.91867 19.8512 5.98495 19.5573 6.61647C19.5207 6.70719 19.3836 6.9674 19.1158 7.21549C18.7861 7.52369 18.4278 7.63161 18.2445 7.68047L18.2419 7.70846Z" fill="#4D6B42"/>
<path d="M21.5644 39.0376C21.6328 39.2134 21.6884 39.4256 21.7236 39.6547C21.8476 40.4474 21.6546 41.1071 21.508 41.47C21.508 41.47 21.4113 40.9904 21.1075 41.0187C20.8037 41.047 20.825 41.9336 18.6751 42.7881C18.6751 42.7881 19.1919 41.3773 18.8662 41.3377C18.5413 41.2887 18.4132 41.7568 17.3419 42.0432C17.3419 42.0432 17.7027 41.5026 17.5264 41.3733C17.3502 41.244 15.3037 39.9717 14.7289 40.1818C14.7289 40.1818 14.6703 40.2046 14.6711 40.1953C14.6551 40.1656 17.012 39.3115 16.9349 38.8243C16.924 38.7386 16.8333 38.7019 16.5646 38.5546C16.1078 38.3052 15.7544 38.0559 15.5172 37.8739C15.5172 37.8739 16.4544 37.6127 16.2196 37.5062C15.9856 37.3903 15.3898 34.3798 15.3898 34.3798C15.3898 34.3798 18.1453 35.4167 18.3792 35.1278C18.613 34.839 18.5904 34.6769 18.5904 34.6769C18.5904 34.6769 19.1142 35.422 19.4089 35.694C19.7037 35.9661 20.3129 34.1686 20.1408 34.0961C19.9687 34.0237 21.3285 35.4958 21.6038 35.2672C21.8792 35.0387 22.0059 34.8904 22.0059 34.8904C22.0059 34.8904 21.9084 35.7378 22.2973 36.0092C22.6871 36.2713 22.8258 35.5877 22.8258 35.5877C23.4236 36.6502 23.5191 37.7509 23.0904 38.3134C23.036 38.393 22.8362 38.6192 22.5185 38.7968C22.1303 39.0243 21.7603 39.0558 21.5627 39.0563L21.5644 39.0376Z" fill="#4D6B42"/>
<path d="M28.0086 20.2011C28.0215 20.0611 28.0643 19.9051 28.1274 19.7321C28.3313 19.1581 28.7138 18.7889 28.9381 18.6027C28.9381 18.6027 28.8297 18.9597 29.0476 19.0458C29.2646 19.1412 29.5746 18.5394 31.3499 18.7795C31.3499 18.7795 30.4898 19.5279 30.6923 19.6785C30.8948 19.829 31.1541 19.5708 31.9818 19.7794C31.9818 19.7794 31.5376 20.0017 31.6077 20.1588C31.6778 20.3159 32.6021 21.9169 33.0652 21.9976L33.1119 22.0019C33.1093 22.0299 31.1992 21.7208 31.073 22.0667C31.0482 22.1303 31.0999 22.1822 31.2225 22.3818C31.4357 22.7216 31.587 23.018 31.6901 23.2252C31.6901 23.2252 30.9633 23.0448 31.0801 23.2062C31.1969 23.3676 30.4918 25.5892 30.4918 25.5892C30.4918 25.5892 29.0044 23.87 28.7403 23.9772C28.4763 24.0845 28.437 24.2032 28.437 24.2032C28.437 24.2032 28.3594 23.5183 28.2548 23.2263C28.1501 22.9342 27.0818 23.8985 27.174 24.02C27.2671 24.1322 26.8873 22.6475 26.6098 22.6971C26.3323 22.7466 26.1956 22.7998 26.1956 22.7998C26.1956 22.7998 26.5741 22.2703 26.4059 21.9535C26.2385 21.6273 25.8899 22.0373 25.8899 22.0373C25.8721 21.1133 26.2172 20.336 26.7165 20.1282C26.7853 20.0969 26.9992 20.0227 27.2818 20.0207C27.6305 20.0154 27.8924 20.1338 28.0272 20.2028L28.0086 20.2011Z" fill="#4D6B42"/>
<path d="M48.0823 11.4011C48.1966 11.487 48.3084 11.6009 48.4269 11.7437C48.8163 12.2128 48.9477 12.7238 48.9964 13.0106C48.9964 13.0106 48.7491 12.7336 48.5571 12.8758C48.3651 13.0179 48.7263 13.5879 47.6359 14.9926C47.6359 14.9926 47.4293 13.8722 47.1941 13.9727C46.9589 14.0733 47.0575 14.4306 46.4548 15.0429C46.4548 15.0429 46.482 14.5466 46.3141 14.531C46.1461 14.5154 44.2931 14.5034 43.9955 14.8711L43.964 14.9058C43.9462 14.8947 45.1768 13.3996 44.9304 13.1132C44.8881 13.0622 44.821 13.0748 44.5758 13.0803C44.1694 13.099 43.8419 13.078 43.6087 13.0564C43.6087 13.0564 44.1298 12.5118 43.9304 12.5309C43.731 12.5501 42.1595 10.823 42.1595 10.823C42.1595 10.823 44.3918 10.3997 44.4364 10.1215C44.4819 9.83395 44.3964 9.74132 44.3964 9.74132C44.3964 9.74132 45.0297 10.0166 45.335 10.0731C45.6403 10.1297 45.3384 8.7182 45.195 8.74253C45.0516 8.76686 46.5279 9.18625 46.6183 8.92171C46.7088 8.65717 46.7413 8.5096 46.7413 8.5096C46.7413 8.5096 47.0066 9.09893 47.3714 9.12338C47.737 9.1385 47.5581 8.63249 47.5581 8.63249C48.3633 9.0837 48.8642 9.77019 48.7962 10.3003C48.7893 10.375 48.7498 10.5972 48.6043 10.8472C48.4348 11.1515 48.2029 11.3182 48.0729 11.4002L48.0823 11.4011Z" fill="#45593E"/>
<path d="M50.8389 12.7299C50.7148 12.8501 50.561 12.9864 50.3801 13.1108C49.7582 13.5236 49.1285 13.6158 48.7594 13.638C48.7594 13.638 49.123 13.3706 48.9767 13.1217C48.8304 12.8728 48.0907 13.2371 46.5096 11.7162C46.5096 11.7162 47.9029 11.6103 47.8085 11.3098C47.714 11.0092 47.2744 11.0813 46.6065 10.2664C46.6065 10.2664 47.1994 10.3685 47.2473 10.1565C47.2952 9.94447 47.5413 7.69912 47.1289 7.27496C47.1289 7.27496 47.0857 7.2333 47.0951 7.23417C47.1163 7.20791 48.7845 8.90628 49.1566 8.64906C49.2271 8.59914 49.2163 8.51342 49.2338 8.22328C49.2611 7.727 49.3263 7.32836 49.3896 7.05189C49.3896 7.05189 49.983 7.75639 49.9869 7.51204C49.9907 7.2677 52.2932 5.58029 52.2932 5.58029C52.2932 5.58029 52.5246 8.35938 52.8647 8.44742C53.2048 8.53546 53.3254 8.45255 53.3254 8.45255C53.3254 8.45255 52.9082 9.19498 52.7998 9.55197C52.6914 9.90896 54.4488 9.73328 54.4364 9.56272C54.4249 9.38283 53.7352 11.1353 54.0412 11.286C54.3472 11.4368 54.521 11.4905 54.521 11.4905C54.521 11.4905 53.7637 11.7402 53.695 12.1762C53.6263 12.6122 54.2697 12.4743 54.2697 12.4743C53.6188 13.4021 52.7151 13.9111 52.0791 13.7673C51.996 13.7502 51.7212 13.6682 51.4391 13.4632C51.0951 13.2148 50.9167 12.9065 50.8381 12.7392L50.8389 12.7299Z" fill="#313C2D"/>
<path d="M55.2789 33.1324C55.1133 33.1923 54.9206 33.2403 54.7017 33.267C53.9582 33.3674 53.3554 33.1703 53.0205 33.0263C53.0205 33.0263 53.4703 32.9457 53.4403 32.6605C53.4197 32.3763 52.5925 32.3654 51.8515 30.3107C51.8515 30.3107 53.1494 30.8265 53.1967 30.5203C53.2439 30.2141 52.814 30.0801 52.5708 29.0504C52.5708 29.0504 53.0648 29.4069 53.1932 29.24C53.3216 29.0731 54.5343 27.1622 54.3597 26.6095C54.3597 26.6095 54.3361 26.5602 54.3463 26.5518C54.3751 26.545 55.1166 28.7974 55.5749 28.727C55.6606 28.7161 55.6871 28.6339 55.8326 28.3839C56.0795 27.955 56.3177 27.6195 56.4887 27.4001C56.4887 27.4001 56.7067 28.2956 56.8208 28.0803C56.9256 27.8642 59.7391 27.363 59.7391 27.363C59.7391 27.363 58.7169 29.9598 58.9871 30.192C59.248 30.4232 59.4007 30.3998 59.4007 30.3998C59.4007 30.3998 58.6973 30.8804 58.4456 31.1582C58.1939 31.436 59.8404 32.05 59.912 31.8872C59.9836 31.7245 58.5864 32.9877 58.7971 33.2519C59.007 33.5255 59.1366 33.6505 59.1366 33.6505C59.1366 33.6505 58.3469 33.5395 58.0968 33.9022C57.8466 34.2649 58.4818 34.4179 58.4818 34.4179C57.4898 34.9658 56.458 35.03 55.9421 34.6057C55.8718 34.5521 55.6634 34.3633 55.5036 34.0568C55.3033 33.6805 55.2793 33.3301 55.278 33.1417L55.2789 33.1324Z" fill="#45593E"/>
<path d="M67.2072 30.0516C67.002 30.0326 66.7704 29.9922 66.5126 29.9306C65.6493 29.6999 65.0512 29.2491 64.7285 28.9744C64.7285 28.9744 65.2534 29.0985 65.3363 28.8144C65.4182 28.5397 64.5018 28.1722 64.4365 25.9356C64.4365 25.9356 65.6851 26.9833 65.8604 26.7172C66.0356 26.4511 65.6035 26.1381 65.7108 25.0845C65.7108 25.0845 66.1314 25.6224 66.3284 25.5277C66.5254 25.4331 68.5989 24.1856 68.6068 23.5934L68.612 23.5374C68.6493 23.5409 68.6413 25.9589 69.1654 26.0923C69.257 26.1196 69.3292 26.051 69.5798 25.886C70.0114 25.5967 70.3978 25.3879 70.6738 25.2535C70.6738 25.2535 70.5872 26.1866 70.7903 26.0267C70.9925 25.876 74.3101 26.6358 74.3101 26.6358C74.3101 26.6358 72.2175 28.5968 72.4222 28.9263C72.6362 29.2568 72.8016 29.3004 72.8016 29.3004C72.8016 29.3004 71.8384 29.4368 71.458 29.5803C71.0776 29.7239 72.6795 31.0208 72.8223 30.9023C72.9651 30.7838 70.9371 31.339 71.0747 31.6812C71.2124 32.0234 71.3088 32.2017 71.3088 32.2017C71.3088 32.2017 70.4747 31.7573 70.0586 31.9822C69.6424 32.207 70.2907 32.6249 70.2907 32.6249C68.9856 32.692 67.8079 32.3003 67.4035 31.6886C67.3451 31.6079 67.1819 31.3386 67.1206 30.9847C67.0392 30.5442 67.1459 30.2059 67.2081 30.0423L67.2072 30.0516Z" fill="#57592E"/>
<path d="M105.47 42.6672C105.555 42.5621 105.659 42.4588 105.782 42.3479C106.211 41.983 106.666 41.8465 106.935 41.7867C106.935 41.7867 106.688 42.0179 106.805 42.1793C106.932 42.3323 107.453 41.9947 108.707 42.8829C108.707 42.8829 107.686 43.127 107.772 43.3232C107.857 43.5193 108.186 43.4181 108.723 43.9197C108.723 43.9197 108.281 43.9164 108.258 44.0648C108.235 44.2132 108.207 45.8294 108.522 46.0846C108.522 46.0846 108.558 46.1067 108.549 46.1058C108.537 46.1236 107.2 45.1242 106.943 45.3545C106.892 45.3968 106.906 45.4545 106.914 45.6624C106.92 46.0111 106.902 46.3012 106.874 46.5057C106.874 46.5057 106.396 46.0754 106.409 46.246C106.421 46.4166 104.845 47.8797 104.845 47.8797C104.845 47.8797 104.498 45.9462 104.246 45.9228C103.994 45.8995 103.902 45.9756 103.902 45.9756C103.902 45.9756 104.162 45.4068 104.215 45.1388C104.268 44.8708 102.995 45.2044 103.011 45.3283C103.028 45.4522 103.432 44.1438 103.195 44.0653C102.956 43.9961 102.827 43.9747 102.827 43.9747C102.827 43.9747 103.368 43.7144 103.388 43.3963C103.418 43.079 102.95 43.252 102.95 43.252C103.366 42.5189 103.993 42.0501 104.479 42.0858C104.545 42.0919 104.75 42.1109 104.965 42.225C105.235 42.363 105.386 42.5559 105.452 42.6654L105.47 42.6672Z" fill="#45593E"/>
<path d="M104.481 40.9564C104.378 40.8433 104.268 40.7108 104.171 40.5417C103.828 39.9828 103.757 39.4303 103.74 39.1087C103.74 39.1087 103.963 39.4401 104.172 39.3183C104.381 39.1965 104.084 38.5384 105.372 37.2368C105.372 37.2368 105.457 38.4494 105.708 38.3879C105.958 38.3265 105.901 37.9259 106.591 37.3876C106.591 37.3876 106.506 37.8974 106.671 37.9503C106.835 38.0032 108.736 38.3114 109.087 37.9769C109.087 37.9769 109.118 37.9422 109.127 37.9524C109.144 37.9728 107.708 39.3454 107.921 39.6852C107.963 39.7455 108.029 39.7422 108.28 39.775C108.699 39.8233 109.031 39.9011 109.26 39.9601C109.26 39.9601 108.66 40.4502 108.866 40.4599C109.071 40.479 110.479 42.5485 110.479 42.5485C110.479 42.5485 108.137 42.6322 108.064 42.9172C107.989 43.2114 108.054 43.321 108.054 43.321C108.054 43.321 107.432 42.9244 107.132 42.8119C106.832 42.6993 106.962 44.2361 107.112 44.2406C107.263 44.2451 105.801 43.5636 105.673 43.8247C105.546 44.0858 105.504 44.2325 105.504 44.2325C105.504 44.2325 105.302 43.5643 104.933 43.4924C104.564 43.4111 104.68 43.9772 104.68 43.9772C103.909 43.3691 103.484 42.5674 103.611 42.0144C103.627 41.9406 103.696 41.7117 103.868 41.4736C104.083 41.183 104.341 41.0469 104.478 40.9844L104.481 40.9564Z" fill="#4D6B42"/>
<path d="M69.1298 44.2156C69.1285 44.0272 69.1484 43.8126 69.1887 43.581C69.3463 42.7957 69.7724 42.2611 70.0436 41.9757C70.0436 41.9757 69.9706 42.4583 70.2733 42.5429C70.5854 42.6283 70.8788 41.7991 73.3062 41.808C73.3062 41.808 72.2986 42.9286 72.6038 43.0887C72.908 43.2581 73.2074 42.8718 74.3619 43.0072C74.3619 43.0072 73.8199 43.371 73.9434 43.5612C74.0669 43.7515 75.6379 45.6856 76.2844 45.7174L76.3497 45.7234C76.3471 45.7514 73.7196 45.6675 73.6279 46.1484C73.6202 46.2324 73.6896 46.2953 73.9021 46.5409C74.2594 46.9505 74.5276 47.3048 74.7011 47.5656C74.7011 47.5656 73.6857 47.4526 73.8745 47.6489C74.0642 47.8359 73.5765 50.8588 73.5765 50.8588C73.5765 50.8588 71.22 48.8707 70.8837 49.0465C70.5465 49.2317 70.5131 49.3886 70.5131 49.3886C70.5131 49.3886 70.2568 48.4989 70.0641 48.1422C69.8713 47.7855 68.6273 49.2229 68.7755 49.3496C68.9229 49.4857 68.1001 47.6023 67.741 47.7195C67.3828 47.8274 67.2053 47.9145 67.2053 47.9145C67.2053 47.9145 67.6046 47.161 67.3118 46.7667C67.019 46.3725 66.6353 46.958 66.6353 46.958C66.4178 45.752 66.7236 44.6886 67.3496 44.3326C67.4294 44.2836 67.7063 44.1399 68.0873 44.0905C68.5541 44.0303 68.9306 44.1312 69.1307 44.2062L69.1298 44.2156Z" fill="#45593E"/>
<path d="M108.213 52.051C108.083 52.0295 107.937 51.9877 107.782 51.9263C107.255 51.7268 106.92 51.3851 106.741 51.1802C106.741 51.1802 107.069 51.2954 107.143 51.1047C107.226 50.9241 106.679 50.6286 106.859 49.1018C106.859 49.1018 107.558 49.882 107.687 49.7151C107.824 49.5491 107.574 49.3093 107.753 48.5919C107.753 48.5919 107.962 48.9783 108.108 48.926C108.254 48.8737 109.688 48.1315 109.753 47.7328L109.756 47.6955C109.775 47.6972 109.528 49.3495 109.856 49.4647C109.91 49.4886 109.961 49.4462 110.14 49.3405C110.448 49.1621 110.713 49.0455 110.899 48.9687C110.899 48.9687 110.747 49.5945 110.897 49.5049C111.038 49.405 113.081 50.103 113.081 50.103C113.081 50.103 111.546 51.3252 111.647 51.5604C111.747 51.7956 111.857 51.834 111.857 51.834C111.857 51.834 111.231 51.8794 110.97 51.9587C110.709 52.038 111.607 53.0061 111.708 52.9307C111.809 52.8554 110.466 53.1261 110.519 53.3663C110.572 53.6065 110.617 53.733 110.617 53.733C110.617 53.733 110.132 53.3867 109.837 53.5194C109.542 53.652 109.927 53.9701 109.927 53.9701C109.082 53.9481 108.378 53.6192 108.174 53.1862C108.151 53.1276 108.065 52.9408 108.059 52.6955C108.05 52.3935 108.146 52.1671 108.212 52.0603L108.213 52.051Z" fill="#313C2D"/>
<path d="M95.8985 52.0935C95.8304 52.2189 95.7512 52.3621 95.6432 52.5121C95.2765 53.0145 94.8263 53.3021 94.569 53.4382C94.569 53.4382 94.7766 53.1281 94.619 53.0005C94.4606 52.8823 93.9904 53.3845 92.5228 52.8718C92.5228 52.8718 93.5156 52.3146 93.3913 52.1336C93.266 51.962 92.9466 52.1582 92.2906 51.8244C92.2906 51.8244 92.7456 51.6878 92.7323 51.5266C92.7191 51.3654 92.4304 49.7104 92.0489 49.562C92.0489 49.562 92.0115 49.5585 92.0124 49.5492C92.015 49.5212 93.5962 50.1292 93.8131 49.8199C93.8556 49.7674 93.8235 49.7079 93.7773 49.4966C93.6973 49.1409 93.6597 48.8363 93.6415 48.6275C93.6415 48.6275 94.2263 48.9171 94.1766 48.7431C94.1269 48.5691 95.4576 46.6032 95.4576 46.6032C95.4576 46.6032 96.2075 48.461 96.4765 48.4013C96.7456 48.3416 96.8205 48.245 96.8205 48.245C96.8205 48.245 96.6741 48.909 96.6668 49.1907C96.6595 49.4724 97.9123 48.7511 97.8676 48.6245C97.822 48.5074 97.6775 49.9622 97.932 49.9576C98.1866 49.953 98.33 49.9286 98.33 49.9286C98.33 49.9286 97.8286 50.3621 97.8729 50.6956C97.9173 51.0291 98.3523 50.7025 98.3523 50.7025C98.0638 51.5792 97.5128 52.2433 97.0128 52.3569C96.9458 52.3695 96.7344 52.4158 96.4842 52.3737C96.1789 52.3171 95.9857 52.1674 95.8909 52.0739L95.8985 52.0935Z" fill="#45593E"/>
<path d="M20.246 96.6275C20.2464 96.4205 20.2596 96.177 20.3119 95.9183C20.4866 95.0499 20.9756 94.4458 21.2774 94.135C21.2774 94.135 21.1992 94.6737 21.5579 94.7634C21.9158 94.8625 22.2459 93.9426 25.0558 93.987C25.0558 93.987 23.9064 95.2167 24.2649 95.41C24.6141 95.6024 24.9551 95.1729 26.2945 95.3443C26.2945 95.3443 25.6735 95.7478 25.8233 95.9594C25.973 96.1709 27.8117 98.3651 28.5616 98.3971L28.6363 98.404C28.6328 98.4414 25.5956 98.31 25.4987 98.8469C25.4901 98.9402 25.568 99.0133 25.8161 99.281C26.2437 99.7442 26.5449 100.149 26.7531 100.441C26.7531 100.441 25.5706 100.303 25.7951 100.521C26.0195 100.74 25.4997 104.108 25.4997 104.108C25.4997 104.108 22.7543 101.848 22.3687 102.048C21.9831 102.247 21.948 102.423 21.948 102.423C21.948 102.423 21.6453 101.426 21.4093 101.027C21.1734 100.629 19.7654 102.211 19.9305 102.358C20.105 102.506 19.124 100.401 18.7174 100.523C18.3014 100.645 18.1044 100.739 18.1044 100.739C18.1044 100.739 18.5582 99.906 18.223 99.4608C17.8786 99.0147 17.4412 99.6706 17.4412 99.6706C17.1808 98.3194 17.5165 97.1364 18.2214 96.7407C18.3208 96.6841 18.6265 96.5336 19.0644 96.4802C19.6067 96.4176 20.0375 96.5423 20.2656 96.6199L20.246 96.6275Z" fill="#41472D"/>
<path d="M40.5736 118.732C40.3065 118.67 40.0055 118.567 39.6893 118.424C38.6135 117.948 37.9285 117.216 37.5747 116.769C37.5747 116.769 38.2369 117.038 38.4123 116.668C38.587 116.308 37.4734 115.63 37.9468 112.559C37.9468 112.559 39.335 114.232 39.6292 113.901C39.9234 113.571 39.434 113.064 39.8397 111.634C39.8397 111.634 40.253 112.453 40.5442 112.358C40.8354 112.263 43.8745 110.954 44.0347 110.141C44.0347 110.141 44.0416 110.066 44.051 110.067C44.0976 110.071 43.4787 113.393 44.1493 113.671C44.2671 113.72 44.3674 113.654 44.7521 113.464C45.3932 113.147 45.9578 112.945 46.356 112.813C46.356 112.813 46.0041 114.07 46.3124 113.891C46.6198 113.722 50.8028 115.4 50.8028 115.4C50.8028 115.4 47.5413 117.685 47.7406 118.174C47.9399 118.663 48.1569 118.759 48.1569 118.759C48.1569 118.759 46.8571 118.77 46.3096 118.888C45.7622 119.007 47.5637 121.094 47.7837 120.955C48.0037 120.815 45.1921 121.194 45.2777 121.691C45.3633 122.189 45.4621 122.443 45.4621 122.443C45.4621 122.443 44.47 121.673 43.8655 121.899C43.2508 122.134 44.0147 122.826 44.0147 122.826C42.2698 122.664 40.8246 121.909 40.4293 120.997C40.3753 120.869 40.2326 120.479 40.2319 119.981C40.2322 119.369 40.4519 118.928 40.5949 118.706L40.5736 118.732Z" fill="#41472D"/>
<path d="M47.5354 67.2648C47.3614 67.3146 47.1594 67.3617 46.9311 67.3876C46.1512 67.4752 45.5186 67.2941 45.1625 67.1763C45.1625 67.1763 45.6301 67.1068 45.6069 66.8505C45.5836 66.5942 44.7275 66.5901 43.9547 64.7772C43.9547 64.7772 45.3147 65.2328 45.3678 64.9648C45.4209 64.6968 44.9715 64.5704 44.7255 63.6723C44.7255 63.6723 45.2424 63.9838 45.3691 63.8355C45.4958 63.6873 46.7904 62.0099 46.6097 61.5225C46.6097 61.5225 46.5861 61.4733 46.5954 61.4741C46.6242 61.4674 47.39 63.4585 47.8669 63.3898C47.9526 63.3789 47.9876 63.3069 48.1399 63.0857C48.4011 62.7053 48.6536 62.4181 48.8321 62.2182C48.8321 62.2182 49.0597 63.0111 49.1721 62.8145C49.2845 62.6179 52.2328 62.1857 52.2328 62.1857C52.2328 62.1857 51.1458 64.4659 51.4279 64.671C51.7007 64.8751 51.8628 64.8525 51.8628 64.8525C51.8628 64.8525 51.1273 65.2736 50.8511 65.5115C50.5749 65.7494 52.3114 66.3059 52.3813 66.1618C52.4605 66.0185 50.9838 67.1238 51.2065 67.3609C51.4291 67.5981 51.5604 67.7044 51.5604 67.7044C51.5604 67.7044 50.7419 67.6002 50.4672 67.9229C50.2019 68.2465 50.8677 68.3742 50.8677 68.3742C49.8257 68.8515 48.7388 68.9012 48.2084 68.532C48.1381 68.4784 47.9178 68.3168 47.7545 68.0475C47.5498 67.7179 47.5224 67.4048 47.5278 67.2453L47.5354 67.2648Z" fill="#45593E"/>
</svg>
