<svg width="249" height="104" viewBox="0 0 249 104" fill="none" xmlns="http://www.w3.org/2000/svg">
<path d="M225.98 2.5H2.41016V100.33H225.98V2.5Z" fill="#FAEBDC"/>
<path d="M239.73 73.9399C239.63 73.7299 239.53 73.4799 239.45 73.1999C239.19 72.2299 239.37 71.3899 239.51 70.9199C239.51 70.9199 239.69 71.4999 240.08 71.4199C240.47 71.3399 240.35 70.2499 243.06 68.9099C243.06 68.9099 242.56 70.7199 242.99 70.7399C243.42 70.7599 243.54 70.1599 244.91 69.6699C244.91 69.6699 244.5 70.3799 244.75 70.5199C245 70.6599 247.83 71.9599 248.56 71.6299L248.63 71.5999C248.65 71.6399 245.66 72.9999 245.83 73.5999C245.86 73.7099 245.98 73.7299 246.35 73.8799C246.98 74.1299 247.47 74.3899 247.81 74.5799C247.81 74.5799 246.61 75.0199 246.93 75.1299C247.25 75.2399 248.39 78.8899 248.39 78.8899C248.39 78.8899 244.65 77.9699 244.38 78.3599C244.11 78.7499 244.16 78.9499 244.16 78.9499C244.16 78.9499 243.39 78.0999 242.97 77.7999C242.55 77.4999 241.96 79.8099 242.2 79.8799C242.44 79.9499 240.48 78.2999 240.14 78.6299C239.8 78.9499 239.65 79.1499 239.65 79.1499C239.65 79.1499 239.68 78.0899 239.14 77.8099C238.6 77.5299 238.49 78.3999 238.49 78.3999C237.58 77.1699 237.33 75.8099 237.82 75.0599C237.89 74.9599 238.11 74.6499 238.51 74.3799C239 74.0499 239.48 73.9599 239.73 73.9299V73.9399Z" fill="#313C2D"/>
<path d="M220.99 2.5H7.5C4.73858 2.5 2.5 4.73858 2.5 7.5V96.35C2.5 99.1114 4.73858 101.35 7.5 101.35H220.99C223.751 101.35 225.99 99.1114 225.99 96.35V7.5C225.99 4.73858 223.751 2.5 220.99 2.5Z" stroke="#D19F61" stroke-width="5" stroke-miterlimit="10"/>
<path d="M231.58 59.74C231.97 60.16 232.39 60.6 232.78 61.07C233.03 61.2 233.28 61.33 233.53 61.45C233.87 61.62 234.21 61.79 234.57 61.93C234.7 61.98 234.83 62.03 234.95 62.08C235.01 61.93 235.07 61.77 235.08 61.7C235.15 61.43 235.16 61.15 235.15 60.88C235.13 60.31 235.02 59.75 235.01 59.18C235.01 59.01 235.84 58.81 235.95 58.9L235.97 58.92C236.3 59.19 236.56 59.52 236.86 59.82C236.99 59.95 237.14 60.03 237.28 60.12C237.53 59.93 237.85 59.83 238.17 59.83C238.11 59.26 238.16 58.7 238.71 58.39C238.94 58.26 239.25 58.16 239.55 58.14C239.55 58.14 239.55 58.13 239.55 58.12C237.78 55.14 237.65 54.92 237.65 54.92C236.74 53.36 235.8 50.26 235.72 43.55C234.44 47.49 234.41 50.47 234.66 52.54C234.73 53.14 235.01 54.38 234.44 54.77C233.83 55.19 232.69 54.33 230.54 53.22C228.91 52.38 227.52 51.83 226.59 51.49C225.12 51.46 222.59 51.22 219.84 49.9C217.77 48.91 214.97 47.55 214.47 45.04C214.09 43.1 215.32 41.33 216.72 39.3C217.31 38.45 218.25 37.26 220.6 35.24C222.19 33.88 224.51 32.07 227.6 30.23C225.65 31.09 213.99 36.34 210.47 42.38C209.96 43.25 209.11 44.76 209.39 46.56C209.74 48.78 211.57 50.22 213.6 51.79C214.79 52.71 216.65 53.95 219.24 54.93C220.85 54.87 223.44 54.99 226.3 56.18C227.32 56.6 229.54 57.55 231.59 59.74H231.58Z" fill="#513119"/>
<path d="M241.65 64.2599C241.65 64.2599 241.57 64.1999 241.52 64.1599C241.12 64.5799 241.14 65.3199 241.08 65.8499C241.06 66.0099 240.13 66.0099 240.08 65.8499C240.03 65.6899 239.85 65.5399 239.82 65.4099C239.82 65.4099 239.81 65.3999 239.8 65.3899C239.75 65.4199 239.69 65.4399 239.65 65.4499C239.37 65.5499 238.96 65.5499 238.68 65.4499C238.41 65.3599 238.21 65.1799 238.04 64.9499C237.86 65.9299 237.53 66.8999 236.45 66.8599C235.99 66.8499 235.58 66.5799 235.2 66.2699C235.57 67.3899 235.73 68.5699 235.4 69.7999C234.68 72.4499 231.9 74.3899 228.51 74.9899L228.47 83.4999C229.97 82.8599 240.33 78.2199 241.92 68.7099C242.12 67.5399 242.19 66.0999 242 64.4599C241.87 64.3999 241.76 64.3399 241.64 64.2399L241.65 64.2599Z" fill="#513119"/>
<path d="M225.26 31.9101C224.99 31.8901 224.69 31.8501 224.37 31.7701C223.26 31.5001 222.47 30.9201 222.05 30.5701C222.05 30.5701 222.73 30.7101 222.83 30.3501C222.93 29.9801 221.75 29.5401 221.63 26.6101C221.63 26.6101 223.26 27.9401 223.48 27.5901C223.7 27.2401 223.14 26.8401 223.26 25.4601C223.26 25.4601 223.81 26.1601 224.07 26.0201C224.33 25.8801 226.97 24.1901 226.98 23.4201V23.3501C227.03 23.3501 227.05 26.5201 227.74 26.6801C227.86 26.7101 227.94 26.6301 228.27 26.3901C228.82 26.0001 229.32 25.7201 229.67 25.5301C229.67 25.5301 229.57 26.7501 229.83 26.5401C230.09 26.3301 234.37 27.2301 234.37 27.2301C234.37 27.2301 231.7 29.8601 231.97 30.2901C232.25 30.7101 232.47 30.7701 232.47 30.7701C232.47 30.7701 231.24 30.9801 230.74 31.1801C230.24 31.3801 232.34 33.0301 232.52 32.8601C232.7 32.7001 230.1 33.4901 230.28 33.9401C230.46 34.3801 230.59 34.6101 230.59 34.6101C230.59 34.6101 229.51 34.0501 228.97 34.3601C228.43 34.6701 229.28 35.2001 229.28 35.2001C227.59 35.3301 226.08 34.8601 225.54 34.0701C225.47 33.9601 225.25 33.6201 225.16 33.1601C225.05 32.5901 225.18 32.1501 225.27 31.9201L225.26 31.9101Z" fill="#4D6B42"/>
<path d="M235.59 46.07C235.44 46.03 235.27 45.97 235.1 45.89C234.5 45.61 234.11 45.2 233.9 44.96C233.9 44.96 234.27 45.12 234.37 44.92C234.46 44.73 233.84 44.35 234.06 42.7C234.06 42.7 234.85 43.63 235.01 43.46C235.17 43.29 234.89 43 235.1 42.24C235.1 42.24 235.34 42.69 235.5 42.64C235.66 42.59 237.33 41.95 237.41 41.51C237.41 41.51 237.41 41.47 237.42 41.47C237.45 41.47 237.14 43.25 237.52 43.41C237.59 43.44 237.64 43.41 237.85 43.31C238.2 43.15 238.51 43.05 238.73 42.99C238.73 42.99 238.55 43.66 238.72 43.57C238.89 43.48 241.23 44.46 241.23 44.46C241.23 44.46 239.45 45.63 239.56 45.9C239.67 46.17 239.8 46.22 239.8 46.22C239.8 46.22 239.08 46.2 238.77 46.26C238.46 46.32 239.49 47.47 239.61 47.4C239.73 47.33 238.17 47.48 238.23 47.75C238.29 48.02 238.34 48.16 238.34 48.16C238.34 48.16 237.78 47.73 237.45 47.84C237.11 47.95 237.54 48.34 237.54 48.34C236.57 48.22 235.75 47.79 235.53 47.29C235.5 47.22 235.41 47.01 235.41 46.74C235.41 46.41 235.52 46.18 235.6 46.06L235.59 46.07Z" fill="#45593E"/>
<path d="M235.7 44.04C235.72 44.23 235.72 44.44 235.7 44.68C235.62 45.48 235.27 46.07 235.04 46.39C235.04 46.39 235.07 45.9 234.77 45.86C234.47 45.82 234.27 46.68 232 46.96C232 46.96 232.84 45.72 232.54 45.6C232.24 45.47 232 45.89 230.9 45.9C230.9 45.9 231.38 45.47 231.24 45.3C231.1 45.13 229.46 43.39 228.86 43.45H228.8C228.8 43.42 231.27 43.18 231.31 42.69C231.31 42.6 231.24 42.55 231.02 42.34C230.65 41.98 230.37 41.65 230.18 41.42C230.18 41.42 231.14 41.4 230.95 41.24C230.76 41.07 230.94 38.01 230.94 38.01C230.94 38.01 233.32 39.7 233.62 39.47C233.92 39.25 233.93 39.09 233.93 39.09C233.93 39.09 234.25 39.94 234.46 40.27C234.67 40.6 235.71 39.02 235.56 38.91C235.41 38.8 236.35 40.56 236.67 40.4C237 40.24 237.15 40.13 237.15 40.13C237.15 40.13 236.84 40.93 237.15 41.28C237.46 41.63 237.77 41 237.77 41C238.08 42.17 237.89 43.27 237.34 43.7C237.27 43.76 237.02 43.93 236.67 44.03C236.24 44.15 235.88 44.09 235.69 44.04H235.7Z" fill="#4D6B42"/>
<path d="M225.1 31.13C225.01 31.33 224.89 31.55 224.73 31.78C224.19 32.56 223.52 33.01 223.13 33.23C223.13 33.23 223.44 32.74 223.19 32.56C222.94 32.38 222.25 33.17 219.98 32.44C219.98 32.44 221.48 31.55 221.28 31.29C221.08 31.02 220.61 31.35 219.58 30.86C219.58 30.86 220.27 30.63 220.25 30.39C220.23 30.15 219.71 27.63 219.11 27.41C219.11 27.41 219.05 27.39 219.06 27.38C219.08 27.34 221.51 28.22 221.83 27.73C221.89 27.64 221.85 27.56 221.77 27.24C221.63 26.7 221.56 26.24 221.53 25.92C221.53 25.92 222.43 26.34 222.35 26.08C222.27 25.82 224.21 22.76 224.21 22.76C224.21 22.76 225.44 25.57 225.84 25.47C226.25 25.38 226.35 25.22 226.35 25.22C226.35 25.22 226.15 26.23 226.16 26.68C226.17 27.13 228.05 25.96 227.97 25.78C227.9 25.6 227.74 27.83 228.13 27.82C228.52 27.81 228.73 27.77 228.73 27.77C228.73 27.77 227.98 28.45 228.06 28.95C228.14 29.45 228.79 28.95 228.79 28.95C228.39 30.29 227.58 31.33 226.82 31.53C226.72 31.56 226.39 31.63 226.01 31.57C225.54 31.5 225.24 31.27 225.09 31.14L225.1 31.13Z" fill="#57592E"/>
<path d="M209.83 45.9701C209.89 46.2301 209.95 46.5201 209.96 46.8501C210.02 47.9701 209.65 48.8701 209.4 49.3501C209.4 49.3501 209.33 48.6701 208.9 48.6701C208.47 48.6701 208.36 49.9101 205.21 50.7801C205.21 50.7801 206.14 48.8901 205.69 48.7801C205.24 48.6701 204.98 49.3001 203.43 49.5401C203.43 49.5401 204.01 48.8401 203.78 48.6301C203.55 48.4201 200.85 46.3601 200 46.5601C200 46.5601 199.92 46.5801 199.92 46.5701C199.91 46.5301 203.36 45.6801 203.31 44.9901C203.31 44.8701 203.18 44.8101 202.82 44.5601C202.21 44.1401 201.75 43.7401 201.43 43.4601C201.43 43.4601 202.79 43.2401 202.48 43.0501C202.17 42.8601 201.76 38.5701 201.76 38.5701C201.76 38.5701 205.5 40.4101 205.88 40.0401C206.25 39.6701 206.24 39.4401 206.24 39.4401C206.24 39.4401 206.87 40.5501 207.25 40.9701C207.63 41.3901 208.75 38.9801 208.52 38.8501C208.29 38.7201 209.99 40.9701 210.42 40.6901C210.85 40.4101 211.05 40.2201 211.05 40.2201C211.05 40.2201 210.79 41.3901 211.3 41.8201C211.81 42.2501 212.11 41.3101 212.11 41.3101C212.8 42.8701 212.77 44.4301 212.09 45.1401C212 45.2401 211.69 45.5301 211.22 45.7401C210.63 46.0001 210.11 45.9901 209.83 45.9601V45.9701Z" fill="#6D6131"/>
<path d="M242.5 62.57L243.17 62.0801C243.17 62.0801 243.58 61.45 243.46 61.26C243.34 61.07 242.5 62.57 242.5 62.57Z" fill="#513119"/>
<path d="M241.86 61.04L242.32 60.34C242.32 60.34 242.54 59.1 242.4 58.73L242.11 59.38V58.26C242.11 58.26 241.58 59.03 241.6 59.46C241.62 59.89 241.94 60.24 241.94 60.24L241.86 61.04Z" fill="#513119"/>
<path d="M234.95 63.88L233.78 63.51L233.45 63.57L234.39 63.88H234.95Z" fill="#513119"/>
<path d="M236.4 64.3701L235.73 64.6301H236.06L236.4 64.3701Z" fill="#513119"/>
<path d="M234.61 65.25L233.81 65.2C233.81 65.2 232.66 64.7 232.41 64.4L233.09 64.55L232.14 63.96C232.14 63.96 233.02 64 233.38 64.24C233.74 64.48 233.9 64.89 233.9 64.89L234.61 65.26V65.25Z" fill="#513119"/>
<path d="M239.84 64.1801L239.78 63.7801C239.78 63.7801 239.93 63.1701 240.06 63.0201V63.3701L240.27 62.8501C240.27 62.8501 240.34 63.2901 240.25 63.4901C240.16 63.6901 239.96 63.7901 239.96 63.7901L239.84 64.1701V64.1801Z" fill="#513119"/>
<path d="M236.91 60.4299V61.0399V61.42L237.29 62.08L237.57 61.5199L236.91 60.4299Z" fill="#513119"/>
</svg>
