<svg width="249" height="104" viewBox="0 0 249 104" fill="none" xmlns="http://www.w3.org/2000/svg">
<path d="M22.6505 2.5H246.22V100.33H22.6505V2.5Z" fill="#FAEBDC"/>
<path d="M8.90031 73.9402C9.00031 73.7302 9.10031 73.4802 9.18031 73.2002C9.44031 72.2302 9.26031 71.3902 9.12031 70.9202C9.12031 70.9202 8.94031 71.5002 8.55031 71.4202C8.16031 71.3402 8.2803 70.2502 5.5703 68.9102C5.5703 68.9102 6.07031 70.7201 5.64031 70.7401C5.21031 70.7601 5.09029 70.1602 3.7203 69.6702C3.7203 69.6702 4.1303 70.3801 3.8803 70.5201C3.6303 70.6601 0.800304 71.9602 0.0703058 71.6302L0.0002985 71.6002C-0.019702 71.6402 2.97031 73.0002 2.80031 73.6002C2.77031 73.7102 2.65032 73.7302 2.28032 73.8802C1.65033 74.1302 1.1603 74.3902 0.820305 74.5802C0.820305 74.5802 2.02031 75.0202 1.70031 75.1302C1.38031 75.2402 0.240318 78.8902 0.240318 78.8902C0.240318 78.8902 3.98029 77.9702 4.25029 78.3602C4.52029 78.7502 4.4703 78.9502 4.4703 78.9502C4.4703 78.9502 5.2403 78.1002 5.6603 77.8002C6.0803 77.5002 6.67032 79.8102 6.43032 79.8802C6.19032 79.9502 8.15031 78.3002 8.49031 78.6302C8.83031 78.9502 8.9803 79.1501 8.9803 79.1501C8.9803 79.1501 8.95031 78.0901 9.49031 77.8102C10.0303 77.5302 10.1403 78.4001 10.1403 78.4001C11.0503 77.1701 11.3003 75.8102 10.8103 75.0602C10.7403 74.9602 10.5203 74.6502 10.1203 74.3802C9.63031 74.0502 9.15031 73.9601 8.90031 73.9301V73.9402Z" fill="#313C2D"/>
<path d="M27.6406 2.5H241.13C243.892 2.5 246.13 4.73858 246.13 7.5V96.35C246.13 99.1114 243.892 101.35 241.13 101.35H27.6406C24.8792 101.35 22.6406 99.1114 22.6406 96.35V7.5C22.6406 4.73858 24.8792 2.5 27.6406 2.5Z" stroke="#D19F61" stroke-width="5" stroke-miterlimit="10"/>
<path d="M17.0507 59.74C16.6607 60.16 16.2407 60.6 15.8507 61.07C15.6007 61.2 15.3507 61.33 15.1007 61.45C14.7607 61.62 14.4207 61.79 14.0607 61.93C13.9307 61.98 13.8007 62.03 13.6807 62.08C13.6207 61.93 13.5607 61.77 13.5507 61.7C13.4807 61.43 13.4707 61.15 13.4807 60.88C13.5007 60.31 13.6107 59.75 13.6207 59.18C13.6207 59.01 12.7907 58.81 12.6807 58.9L12.6607 58.92C12.3307 59.19 12.0707 59.52 11.7707 59.82C11.6407 59.95 11.4907 60.03 11.3507 60.12C11.1007 59.93 10.7807 59.83 10.4607 59.83C10.5207 59.26 10.4707 58.7 9.92069 58.39C9.69069 58.26 9.38069 58.16 9.08069 58.14C9.08069 58.14 9.08069 58.13 9.08069 58.12C10.8507 55.14 10.9807 54.92 10.9807 54.92C11.8907 53.36 12.8307 50.26 12.9107 43.55C14.1907 47.49 14.2207 50.47 13.9707 52.54C13.9007 53.14 13.6207 54.38 14.1907 54.77C14.8007 55.19 15.9407 54.33 18.0907 53.22C19.7207 52.38 21.1107 51.83 22.0407 51.49C23.5107 51.46 26.0407 51.22 28.7907 49.9C30.8607 48.91 33.6607 47.55 34.1607 45.04C34.5407 43.1 33.3107 41.33 31.9107 39.3C31.3207 38.45 30.3807 37.26 28.0307 35.24C26.4407 33.88 24.1207 32.07 21.0307 30.23C22.9807 31.09 34.6407 36.34 38.1606 42.38C38.6706 43.25 39.5207 44.76 39.2407 46.56C38.8907 48.78 37.0607 50.22 35.0307 51.79C33.8407 52.71 31.9807 53.95 29.3907 54.93C27.7807 54.87 25.1907 54.99 22.3307 56.18C21.3107 56.6 19.0907 57.55 17.0407 59.74H17.0507Z" fill="#513119"/>
<path d="M6.98067 64.2602C6.98067 64.2602 7.06067 64.2002 7.11067 64.1602C7.51067 64.5802 7.49067 65.3202 7.55067 65.8502C7.57067 66.0102 8.50067 66.0102 8.55067 65.8502C8.60067 65.6902 8.78068 65.5402 8.81068 65.4102C8.81068 65.4102 8.82067 65.4002 8.83067 65.3902C8.88067 65.4202 8.94066 65.4402 8.98066 65.4502C9.26066 65.5502 9.67066 65.5502 9.95066 65.4502C10.2207 65.3602 10.4207 65.1802 10.5907 64.9502C10.7707 65.9302 11.1007 66.9002 12.1807 66.8602C12.6407 66.8502 13.0507 66.5801 13.4307 66.2701C13.0607 67.3901 12.9007 68.5702 13.2307 69.8002C13.9507 72.4502 16.7307 74.3901 20.1207 74.9901L20.1606 83.5002C18.6606 82.8602 8.30068 78.2201 6.71068 68.7101C6.51068 67.5401 6.44066 66.1001 6.63066 64.4601C6.76066 64.4001 6.87068 64.3401 6.99068 64.2401L6.98067 64.2602Z" fill="#513119"/>
<path d="M23.3705 31.9101C23.6405 31.8901 23.9405 31.8501 24.2605 31.7701C25.3705 31.5001 26.1605 30.9201 26.5805 30.5701C26.5805 30.5701 25.9005 30.7101 25.8005 30.3501C25.7005 29.9801 26.8805 29.5401 27.0005 26.6101C27.0005 26.6101 25.3705 27.9401 25.1505 27.5901C24.9305 27.2401 25.4905 26.8401 25.3705 25.4601C25.3705 25.4601 24.8205 26.1601 24.5605 26.0201C24.3005 25.8801 21.6605 24.1901 21.6505 23.4201V23.3501C21.6005 23.3501 21.5805 26.5201 20.8905 26.6801C20.7705 26.7101 20.6905 26.6301 20.3605 26.3901C19.8105 26.0001 19.3105 25.7201 18.9605 25.5301C18.9605 25.5301 19.0605 26.7501 18.8005 26.5401C18.5405 26.3301 14.2605 27.2301 14.2605 27.2301C14.2605 27.2301 16.9305 29.8601 16.6605 30.2901C16.3805 30.7101 16.1605 30.7701 16.1605 30.7701C16.1605 30.7701 17.3905 30.9801 17.8905 31.1801C18.3905 31.3801 16.2905 33.0301 16.1105 32.8601C15.9305 32.7001 18.5305 33.4901 18.3505 33.9401C18.1705 34.3801 18.0405 34.6101 18.0405 34.6101C18.0405 34.6101 19.1205 34.0501 19.6605 34.3601C20.2005 34.6701 19.3505 35.2001 19.3505 35.2001C21.0405 35.3301 22.5505 34.8601 23.0905 34.0701C23.1605 33.9601 23.3805 33.6201 23.4705 33.1601C23.5805 32.5901 23.4505 32.1501 23.3605 31.9201L23.3705 31.9101Z" fill="#4D6B42"/>
<path d="M13.0405 46.07C13.1905 46.03 13.3605 45.97 13.5305 45.89C14.1305 45.61 14.5205 45.2 14.7305 44.96C14.7305 44.96 14.3605 45.12 14.2605 44.92C14.1705 44.73 14.7905 44.35 14.5705 42.7C14.5705 42.7 13.7805 43.63 13.6205 43.46C13.4605 43.29 13.7405 43 13.5305 42.24C13.5305 42.24 13.2905 42.69 13.1305 42.64C12.9705 42.59 11.3005 41.95 11.2205 41.51C11.2205 41.51 11.2205 41.47 11.2105 41.47C11.1805 41.47 11.4905 43.25 11.1105 43.41C11.0405 43.44 10.9905 43.41 10.7805 43.31C10.4305 43.15 10.1205 43.05 9.90049 42.99C9.90049 42.99 10.0805 43.66 9.91047 43.57C9.74047 43.48 7.40049 44.46 7.40049 44.46C7.40049 44.46 9.18047 45.63 9.07047 45.9C8.96047 46.17 8.83048 46.22 8.83048 46.22C8.83048 46.22 9.55048 46.2 9.86048 46.26C10.1705 46.32 9.14048 47.47 9.02048 47.4C8.90048 47.33 10.4605 47.48 10.4005 47.75C10.3405 48.02 10.2905 48.16 10.2905 48.16C10.2905 48.16 10.8505 47.73 11.1805 47.84C11.5205 47.95 11.0905 48.34 11.0905 48.34C12.0605 48.22 12.8805 47.79 13.1005 47.29C13.1305 47.22 13.2205 47.01 13.2205 46.74C13.2205 46.41 13.1105 46.18 13.0305 46.06L13.0405 46.07Z" fill="#45593E"/>
<path d="M12.9301 44.04C12.9101 44.23 12.9101 44.44 12.9301 44.68C13.0101 45.48 13.3601 46.07 13.5901 46.39C13.5901 46.39 13.5601 45.9 13.8601 45.86C14.1601 45.82 14.3601 46.68 16.6301 46.96C16.6301 46.96 15.7901 45.72 16.0901 45.6C16.3901 45.47 16.6301 45.89 17.7301 45.9C17.7301 45.9 17.2501 45.47 17.3901 45.3C17.5301 45.13 19.1701 43.39 19.7701 43.45H19.8301C19.8301 43.42 17.3601 43.18 17.3201 42.69C17.3201 42.6 17.3901 42.55 17.6101 42.34C17.9801 41.98 18.2601 41.65 18.4501 41.42C18.4501 41.42 17.4901 41.4 17.6801 41.24C17.8701 41.07 17.6901 38.01 17.6901 38.01C17.6901 38.01 15.3101 39.7 15.0101 39.47C14.7101 39.25 14.7001 39.09 14.7001 39.09C14.7001 39.09 14.3801 39.94 14.1701 40.27C13.9601 40.6 12.9201 39.02 13.0701 38.91C13.2201 38.8 12.2801 40.56 11.9601 40.4C11.6301 40.24 11.4801 40.13 11.4801 40.13C11.4801 40.13 11.7901 40.93 11.4801 41.28C11.1701 41.63 10.8601 41 10.8601 41C10.5501 42.17 10.7401 43.27 11.2901 43.7C11.3601 43.76 11.6101 43.93 11.9601 44.03C12.3901 44.15 12.7501 44.09 12.9401 44.04H12.9301Z" fill="#4D6B42"/>
<path d="M23.5302 31.13C23.6202 31.33 23.7402 31.55 23.9002 31.78C24.4402 32.56 25.1102 33.01 25.5002 33.23C25.5002 33.23 25.1902 32.74 25.4402 32.56C25.6902 32.38 26.3802 33.17 28.6502 32.44C28.6502 32.44 27.1502 31.55 27.3502 31.29C27.5502 31.02 28.0202 31.35 29.0502 30.86C29.0502 30.86 28.3602 30.63 28.3802 30.39C28.4002 30.15 28.9202 27.63 29.5202 27.41C29.5202 27.41 29.5802 27.39 29.5702 27.38C29.5502 27.34 27.1202 28.22 26.8002 27.73C26.7402 27.64 26.7802 27.56 26.8602 27.24C27.0002 26.7 27.0702 26.24 27.1002 25.92C27.1002 25.92 26.2002 26.34 26.2802 26.08C26.3602 25.82 24.4202 22.76 24.4202 22.76C24.4202 22.76 23.1902 25.57 22.7902 25.47C22.3802 25.38 22.2802 25.22 22.2802 25.22C22.2802 25.22 22.4802 26.23 22.4702 26.68C22.4602 27.13 20.5802 25.96 20.6602 25.78C20.7302 25.6 20.8902 27.83 20.5002 27.82C20.1102 27.81 19.9002 27.77 19.9002 27.77C19.9002 27.77 20.6502 28.45 20.5702 28.95C20.4902 29.45 19.8402 28.95 19.8402 28.95C20.2402 30.29 21.0502 31.33 21.8102 31.53C21.9102 31.56 22.2402 31.63 22.6202 31.57C23.0902 31.5 23.3902 31.27 23.5402 31.14L23.5302 31.13Z" fill="#57592E"/>
<path d="M38.8004 45.9701C38.7404 46.2301 38.6804 46.5201 38.6704 46.8501C38.6104 47.9701 38.9804 48.8701 39.2304 49.3501C39.2304 49.3501 39.3004 48.6701 39.7304 48.6701C40.1604 48.6701 40.2704 49.9101 43.4204 50.7801C43.4204 50.7801 42.4904 48.8901 42.9404 48.7801C43.3904 48.6701 43.6504 49.3001 45.2004 49.5401C45.2004 49.5401 44.6204 48.8401 44.8504 48.6301C45.0804 48.4201 47.7804 46.3601 48.6304 46.5601C48.6304 46.5601 48.7104 46.5801 48.7104 46.5701C48.7204 46.5301 45.2704 45.6801 45.3204 44.9901C45.3204 44.8701 45.4504 44.8101 45.8104 44.5601C46.4204 44.1401 46.8804 43.7401 47.2004 43.4601C47.2004 43.4601 45.8404 43.2401 46.1504 43.0501C46.4604 42.8601 46.8704 38.5701 46.8704 38.5701C46.8704 38.5701 43.1304 40.4101 42.7504 40.0401C42.3804 39.6701 42.3904 39.4401 42.3904 39.4401C42.3904 39.4401 41.7604 40.5501 41.3804 40.9701C41.0004 41.3901 39.8804 38.9801 40.1104 38.8501C40.3404 38.7201 38.6404 40.9701 38.2104 40.6901C37.7804 40.4101 37.5804 40.2201 37.5804 40.2201C37.5804 40.2201 37.8404 41.3901 37.3304 41.8201C36.8204 42.2501 36.5204 41.3101 36.5204 41.3101C35.8304 42.8701 35.8604 44.4301 36.5404 45.1401C36.6304 45.2401 36.9404 45.5301 37.4104 45.7401C38.0004 46.0001 38.5204 45.9901 38.8004 45.9601V45.9701Z" fill="#6D6131"/>
<path d="M6.12988 62.57L5.4605 62.0801C5.4605 62.0801 5.05086 61.45 5.17075 61.26C5.29064 61.07 6.12988 62.57 6.12988 62.57Z" fill="#513119"/>
<path d="M6.77092 61.04L6.31134 60.34C6.31134 60.34 6.09152 59.1 6.2314 58.73L6.52114 59.38V58.26C6.52114 58.26 7.05068 59.03 7.0307 59.46C7.01072 59.89 6.69098 60.24 6.69098 60.24L6.77092 61.04Z" fill="#513119"/>
<path d="M13.6802 63.88L14.8502 63.51L15.1802 63.57L14.2402 63.88H13.6802Z" fill="#513119"/>
<path d="M12.2305 64.3701L12.8999 64.6301H12.5702L12.2305 64.3701Z" fill="#513119"/>
<path d="M14.0202 65.25L14.8202 65.2C14.8202 65.2 15.9702 64.7 16.2202 64.4L15.5402 64.55L16.4902 63.96C16.4902 63.96 15.6102 64 15.2502 64.24C14.8902 64.48 14.7302 64.89 14.7302 64.89L14.0202 65.26V65.25Z" fill="#513119"/>
<path d="M8.79015 64.1801L8.8501 63.7801C8.8501 63.7801 8.70023 63.1701 8.57035 63.0201V63.3701L8.36055 62.8501C8.36055 62.8501 8.2906 63.2901 8.38052 63.4901C8.47044 63.6901 8.67027 63.7901 8.67027 63.7901L8.79015 64.1701V64.1801Z" fill="#513119"/>
<path d="M11.7202 60.4299V61.0399V61.42L11.3406 62.08L11.0608 61.5199L11.7202 60.4299Z" fill="#513119"/>
</svg>
