<svg width="187" height="99" viewBox="0 0 187 99" fill="none" xmlns="http://www.w3.org/2000/svg">
<path d="M171.284 29.6167H19.4019V95.2992H171.284V29.6167Z" fill="#FAEBDC"/>
<path d="M172.018 78.4114C172.018 78.4114 165.596 82.3394 165.018 83.2093C164.441 84.0792 161.491 95.0342 161.491 95.0342L167.043 95.2992C167.043 95.2992 166.235 86.9674 171.671 82.8627L172.018 78.4114Z" fill="#513119"/>
<path d="M180.622 77.3715C180.554 77.2288 180.486 77.0589 180.431 76.8686C180.255 76.2094 180.377 75.6385 180.472 75.3191C180.472 75.3191 180.594 75.7133 180.86 75.6589C181.125 75.6045 181.043 74.8638 182.885 73.9531C182.885 73.9531 182.545 75.1832 182.837 75.1968C183.129 75.2104 183.211 74.8026 184.142 74.4696C184.142 74.4696 183.863 74.9521 184.033 75.0473C184.203 75.1424 186.126 76.0259 186.622 75.8016L186.67 75.7812C186.684 75.8084 184.652 76.7327 184.767 77.1404C184.788 77.2152 184.869 77.2288 185.121 77.3307C185.549 77.5006 185.882 77.6773 186.113 77.8064C186.113 77.8064 185.297 78.1054 185.515 78.1802C185.732 78.2549 186.507 80.7355 186.507 80.7355C186.507 80.7355 183.965 80.1102 183.782 80.3753C183.598 80.6403 183.632 80.7762 183.632 80.7762C183.632 80.7762 183.109 80.1986 182.824 79.9947C182.538 79.7908 182.137 81.3607 182.3 81.4082C182.463 81.4558 181.131 80.3345 180.9 80.5588C180.669 80.7762 180.567 80.9121 180.567 80.9121C180.567 80.9121 180.588 80.1918 180.221 80.0015C179.854 79.8112 179.779 80.4024 179.779 80.4024C179.161 79.5665 178.991 78.6423 179.324 78.1326C179.371 78.0646 179.521 77.854 179.793 77.6705C180.126 77.4462 180.452 77.3851 180.622 77.3647V77.3715Z" fill="#313C2D"/>
<path d="M19.7829 89.8964C20.1907 89.944 20.8295 89.9915 21.5838 89.91C23.0857 89.7469 24.0711 89.176 25.573 88.2926C26.905 87.511 27.571 87.1033 27.8836 86.3965C27.9924 86.1586 28.1826 85.615 27.9448 84.6296C27.571 83.1005 26.5176 81.9928 25.4643 81.0277C24.2546 79.92 22.4061 78.4317 19.7557 76.9366C19.7965 75.7133 19.8305 74.4833 19.8712 73.26C21.013 73.5183 22.5556 73.9532 24.241 74.7143C24.9138 75.0201 26.4021 75.7337 28.0603 76.957C32.5728 80.287 37.0649 86.4441 35.1756 88.8838C35.0669 89.0265 34.6999 89.4547 34.1359 89.9032C32.9194 90.8614 31.635 91.2284 30.8398 91.473C27.639 92.4788 28.006 93.0293 24.9954 93.9672C23.8672 94.3205 22.1547 94.7623 19.9052 94.9865C19.9732 95.4623 20.0411 95.9787 19.98 95.9855C19.8984 95.9991 19.3548 94.9729 19.4159 94.239L19.7829 89.8896V89.8964Z" fill="#51311A"/>
<path d="M7.5772 28.9371C7.77428 28.9642 7.99855 29.0118 8.2432 29.0934C9.06551 29.3652 9.62277 29.8477 9.9082 30.1467C9.9082 30.1467 9.4053 30.004 9.30336 30.2758C9.20143 30.5545 10.0645 30.9622 9.94897 33.2321C9.94897 33.2321 8.80726 32.1175 8.62377 32.3758C8.43349 32.634 8.82765 32.9738 8.63736 34.0408C8.63736 34.0408 8.27718 33.4767 8.06651 33.5651C7.85583 33.6534 5.74231 34.8223 5.68794 35.4271C5.68794 35.4271 5.68794 35.4815 5.68114 35.4815C5.64716 35.4815 5.85104 33.0282 5.34135 32.8651C5.253 32.8379 5.18504 32.8991 4.92 33.0622C4.47147 33.3408 4.0841 33.5311 3.80547 33.6534C3.80547 33.6534 3.96178 32.7156 3.7579 32.8651C3.54723 33.0146 0.373535 32.0972 0.373535 32.0972C0.373535 32.0972 2.57541 30.2011 2.39872 29.8545C2.22202 29.5147 2.05213 29.4603 2.05213 29.4603C2.05213 29.4603 2.99676 29.3584 3.39092 29.2293C3.78508 29.1002 2.31037 27.7138 2.16766 27.8293C2.01815 27.9449 4.04333 27.4691 3.93459 27.1158C3.83265 26.7624 3.74431 26.5857 3.74431 26.5857C3.74431 26.5857 4.51904 27.075 4.94718 26.8643C5.37533 26.6536 4.77049 26.1983 4.77049 26.1983C6.05492 26.1847 7.16945 26.6332 7.51604 27.2721C7.56361 27.3604 7.69953 27.6322 7.7403 27.9992C7.78788 28.4478 7.65875 28.7807 7.57041 28.9506L7.5772 28.9371Z" fill="#45593E"/>
<path d="M167.185 29H22.9417C21.076 29 19.5635 30.5173 19.5635 32.389V92.611C19.5635 94.4827 21.076 96 22.9417 96H167.185C169.051 96 170.563 94.4827 170.563 92.611V32.389C170.563 30.5173 169.051 29 167.185 29Z" stroke="#D19F61" stroke-width="5" stroke-miterlimit="10"/>
<path d="M173.063 78C175.374 77.5922 177.493 76.307 177.982 74.5129C178.424 72.8886 177.588 71.3596 176.895 70.0887C175.923 68.2946 174.632 67.2888 174.033 66.8335C172.362 65.5558 170.676 65.0326 169.609 64.7947C168.073 63.7074 167.061 62.5656 166.442 61.7569C165.375 60.3706 164.424 59.1133 164.58 57.591C164.703 56.361 165.525 55.5183 166.014 55.029C169.378 51.665 177.941 50.2243 179.375 50C177.024 50.6728 175.189 51.4611 173.911 52.0795C172.015 52.997 171.193 53.6222 170.656 54.0775C169.378 55.1717 168.264 56.1231 168.182 57.4619C168.073 59.1949 169.684 60.5744 170.873 61.5802C172.457 62.9258 174.081 63.5171 175.039 63.7957C175.597 64.1831 176.412 64.7879 177.336 65.617C178.56 66.718 179.158 67.4791 179.633 67.3092C180.075 67.1529 180.109 66.283 180.163 65.8753C180.354 64.4753 180.891 62.5181 182.413 60.1463C181.305 64.5704 181.387 66.7655 181.72 67.9548C181.72 67.9548 181.767 68.1179 182.413 70.3809C182.624 71.7129 182.562 72.8479 182.413 73.7653C181.332 80.2282 174.083 83.5583 173.063 84" fill="#513119"/>
<path d="M12.8444 68.3805C12.8648 68.6115 12.8784 68.8766 12.8512 69.1688C12.7697 70.161 12.3755 70.9154 12.1173 71.3231C12.1173 71.3231 12.1376 70.7183 11.7911 70.6775C11.4445 70.6367 11.2202 71.7173 8.563 72.1862C8.563 72.1862 9.52801 70.6095 9.17463 70.4668C8.82124 70.3241 8.54261 70.861 7.25818 70.9222C7.25818 70.9222 7.80865 70.3649 7.64555 70.1542C7.48244 69.9435 5.52522 67.8776 4.81845 67.9727C4.81845 67.9727 4.75049 67.9863 4.75049 67.9727C4.75049 67.932 7.63195 67.5106 7.67273 66.899C7.67953 66.7902 7.59118 66.7291 7.32614 66.4776C6.87761 66.0495 6.5514 65.6553 6.32714 65.3767C6.32714 65.3767 7.45526 65.3087 7.2242 65.1116C6.99314 64.9146 7.14265 61.1021 7.14265 61.1021C7.14265 61.1021 9.96295 63.0797 10.3095 62.7874C10.6561 62.4952 10.6697 62.2913 10.6697 62.2913C10.6697 62.2913 11.0571 63.3311 11.3153 63.7321C11.5736 64.133 12.7561 62.1146 12.5794 61.9855C12.4027 61.8496 13.5308 63.9971 13.9114 63.7864C14.2919 63.5758 14.4754 63.4331 14.4754 63.4331C14.4754 63.4331 14.1356 64.4388 14.5026 64.8602C14.8696 65.2815 15.2162 64.4864 15.2162 64.4864C15.6036 65.9272 15.3997 67.2931 14.7677 67.8572C14.6793 67.9319 14.4007 68.163 13.9929 68.2989C13.49 68.4688 13.0619 68.4145 12.8444 68.3669V68.3805Z" fill="#4D6B42"/>
<path d="M11.4241 72.0028C11.6076 71.9893 11.8183 71.996 12.0494 72.0232C12.8309 72.1184 13.4017 72.4718 13.7076 72.696C13.7076 72.696 13.2318 72.6553 13.1843 72.9407C13.1367 73.2261 13.9726 73.4436 14.2173 75.6319C14.2173 75.6319 13.0212 74.7892 12.892 75.0746C12.7629 75.36 13.1707 75.6047 13.1571 76.658C13.1571 76.658 12.7425 76.1891 12.5726 76.3115C12.4027 76.4338 10.6766 77.9697 10.7174 78.5473V78.6017C10.6834 78.6017 10.4931 76.2231 10.0106 76.1755C9.92223 76.1687 9.87466 76.2367 9.66399 76.4406C9.30381 76.794 8.9844 77.0522 8.74654 77.2221C8.74654 77.2221 8.74654 76.2979 8.58344 76.4813C8.42034 76.6648 5.42334 76.4066 5.42334 76.4066C5.42334 76.4066 7.11552 74.1639 6.89805 73.8717C6.68738 73.5795 6.52428 73.5591 6.52428 73.5591C6.52428 73.5591 7.36018 73.2805 7.69317 73.0834C8.02617 72.8863 6.4903 71.8533 6.37477 71.9892C6.25924 72.1252 7.99899 71.2757 7.85628 70.9631C7.70677 70.6437 7.60483 70.4942 7.60483 70.4942C7.60483 70.4942 8.37956 70.8068 8.73295 70.5213C9.08634 70.2359 8.4747 69.9233 8.4747 69.9233C9.63001 69.6583 10.697 69.8689 11.1115 70.4058C11.1659 70.4806 11.3358 70.7184 11.4241 71.0514C11.5329 71.466 11.4717 71.8126 11.4241 71.996V72.0028Z" fill="#45593E"/>
<path d="M21.9851 34.3263C28.1856 34.3263 33.212 29.2998 33.212 23.0994C33.212 16.899 28.1856 11.8726 21.9851 11.8726C15.7847 11.8726 10.7583 16.899 10.7583 23.0994C10.7583 29.2998 15.7847 34.3263 21.9851 34.3263Z" fill="#FFF8F3" stroke="#1D1D1B" stroke-width="0.5" stroke-miterlimit="10"/>
<path d="M21.9853 29.5488C25.4684 29.5488 28.2919 26.7252 28.2919 23.2422C28.2919 19.7591 25.4684 16.9355 21.9853 16.9355C18.5023 16.9355 15.6787 19.7591 15.6787 23.2422C15.6787 26.7252 18.5023 29.5488 21.9853 29.5488Z" fill="#EDE1D9"/>
<path d="M21.6792 21.407L26.613 18.0906L23.7112 23.3846L21.72 21.441" fill="#4D4C4C"/>
<path d="M22.0595 25.0905L17.1528 28.4477L20.0071 23.1333L22.0187 25.0497" fill="#4D4C4C"/>
<path d="M20.1909 23.4527L16.623 18.6956L22.0598 21.312L20.2317 23.4051" fill="#4D4C4C"/>
<path d="M23.8406 23.2827L27.0347 28.2913L21.8154 25.2739L23.7998 23.3235" fill="#4D4C4C"/>
<path d="M20.2383 24.0779L21.6858 13.9724L23.5615 24.0779H20.3062" fill="#A12734"/>
<path d="M23.3988 22.4673L22.1279 31.5942L20.4697 22.4673H23.3444" fill="#383847"/>
<path d="M22.5149 24.6147L13.1841 23.2963L22.5149 21.5837V24.5536" fill="#383847"/>
<path d="M21.6792 21.4546L31.4449 22.8885L21.6792 24.7438V21.5226" fill="#383847"/>
<path d="M21.9845 24.7983C24.1728 24.7983 24.1728 21.4004 21.9845 21.4004C19.7962 21.4004 19.7962 24.7983 21.9845 24.7983Z" fill="black"/>
<path d="M29.1532 15.916C28.8815 16.4797 28.4469 16.8872 27.8628 17.1181C28.1345 16.5476 28.5691 16.1469 29.1532 15.916Z" fill="#3C3C3B"/>
<path d="M13.8433 16.521C14.4545 16.6704 14.9435 17.01 15.2831 17.5397C14.6718 17.3971 14.1828 17.0507 13.8433 16.521Z" fill="#3C3C3B"/>
<path d="M14.856 30.4179C15.1412 29.8542 15.5827 29.4603 16.1735 29.2429C15.8951 29.8066 15.4468 30.2005 14.856 30.4179Z" fill="#3C3C3B"/>
<path d="M29.5206 30.2002C28.9297 29.9896 28.4815 29.6025 28.1895 29.0388C28.7803 29.2494 29.2286 29.6433 29.5206 30.2002Z" fill="#3C3C3B"/>
<path d="M12.3687 19.7693C13.0003 19.7829 13.5436 20.0138 13.9919 20.4552C13.3602 20.4417 12.8169 20.2107 12.3687 19.7693Z" fill="#B2B2B2"/>
<path d="M17.1533 13.7278C17.6695 14.081 18.0091 14.5767 18.1381 15.188C17.6152 14.8348 17.2892 14.339 17.1533 13.7278Z" fill="#B2B2B2"/>
<path d="M25.6069 13.4084C25.6137 14.0401 25.4032 14.597 24.9821 15.0588C24.9753 14.4272 25.1858 13.8771 25.6069 13.4084Z" fill="#B2B2B2"/>
<path d="M30.9881 19.0354C30.5535 19.4904 30.0169 19.7485 29.3921 19.7825C29.82 19.3274 30.3633 19.0762 30.9881 19.0354Z" fill="#B2B2B2"/>
<path d="M31.4441 26.4698C30.8193 26.5105 30.2488 26.3272 29.7666 25.9265C30.3914 25.8857 30.9619 26.0691 31.4441 26.4698Z" fill="#B2B2B2"/>
<path d="M26.232 32.5176C25.743 32.1237 25.4374 31.6143 25.3491 30.9895C25.8449 31.3766 26.137 31.8928 26.232 32.5176Z" fill="#B2B2B2"/>
<path d="M18.2603 32.5378C18.3146 31.913 18.5863 31.3832 19.0549 30.9622C19.0005 31.587 18.7289 32.1167 18.2603 32.5378Z" fill="#B2B2B2"/>
<path d="M12.5586 26.9861C12.9933 26.5311 13.5298 26.273 14.1546 26.239C13.7268 26.6941 13.1834 26.9454 12.5586 26.9861Z" fill="#B2B2B2"/>
<path d="M17.0308 77.3327C16.0046 76.9658 10.9213 75.0493 10.5815 71.6038C10.4591 70.3669 10.9892 69.3815 11.3018 68.831C15.2299 61.8652 19.8783 60.8187 21.5365 56.0479C23.2626 51.0801 21.4889 42.8639 20.5239 41.1241C20.4423 40.9746 19.7084 39.697 20.1705 39.0853C20.388 38.7931 20.8909 38.63 20.8501 38.5213C20.8297 38.4601 20.6598 38.5077 20.5239 38.4329C20.2928 38.3106 20.2453 37.8825 20.32 37.2776C20.3472 37.1281 20.3812 36.9718 20.4084 36.8223C20.8365 36.7679 21.2986 36.6932 21.7947 36.5844C22.5355 36.4213 23.1947 36.2107 23.7587 36C24.5403 37.8825 25.1723 39.7513 25.6548 41.5726C27.3674 48.0288 27.2043 53.8868 25.2538 57.5702C24.4587 59.0721 21.3258 64.0399 19.0492 65.6234C18.8113 65.7933 17.7512 66.4933 16.7046 67.7641C16.1337 68.4573 15.7532 69.1029 15.5221 69.531C14.8085 70.2514 14.6862 71.3319 15.1755 72.0931C15.76 73.0037 17.0091 73.0068 17.0635 73C17.0839 74.4543 17.0962 76.1605 17.0635 77.5L17.0308 77.3327Z" fill="#51311A"/>
<path d="M27.5494 48.5705C28.0862 48.0472 29.0445 46.9734 29.459 45.3288C29.6221 44.6832 29.6629 44.0988 29.6629 43.623C29.6629 43.623 28.5552 48.1967 26.4212 47.0958L25.8164 47.9317L26.1494 49.1481C26.6183 48.9578 27.0804 48.7608 27.5494 48.5705Z" fill="#51311A"/>
<path d="M8.8349 26.2866C8.8349 26.2866 7.61164 26.5924 7.31262 27.5371C7.11554 28.1691 7.44174 28.7671 8.13492 29.8477C9.99021 32.7359 10.5271 32.9194 11.3086 34.4893C11.9202 35.7193 11.7571 35.9504 12.5115 37.3436C13.1095 38.4513 13.7416 39.2872 14.1901 39.8309C15.4949 39.226 17.5269 38.2746 20.0142 37.0649C23.385 35.4339 24.0034 35.1825 25.3829 34.598C27.3674 33.7553 27.8567 33.9796 31.975 33.0893C33.572 32.7427 35.9438 32.1787 38.8253 31.2952C39.9942 31.1729 41.3465 31.1117 42.8484 31.1797C44.6833 31.268 46.294 31.5263 47.626 31.8321C47.626 31.8321 55.217 36.7319 59.5392 36.4941C60.4634 36.4465 62.4275 36.2766 62.9983 35.0669C63.1342 34.7747 63.1546 34.4961 63.1546 34.299C63.3381 34.1291 63.6303 33.8844 64.0109 33.6398C65.54 32.6408 67.0963 32.5389 67.5244 32.4981C68.8156 32.369 70.834 31.703 74.0281 29.3516C74.0281 29.3516 69.4748 31.8253 66.6681 30.8875C63.8614 29.9496 63.1614 31.2408 63.1614 31.2408C63.1614 31.2408 61.7615 33.2864 59.8926 33.7213C58.0237 34.1631 45.6416 27.6662 45.6416 27.6662C45.6416 27.6662 45.4581 27.2109 44.9484 26.9118C44.2416 26.4905 43.2426 26.8915 41.3194 27.6662C38.9748 28.6108 39.0631 28.5904 38.9884 28.604C36.4263 29.2225 33.7283 28.2031 33.7283 28.2031C33.9322 28.1283 34.2312 27.9992 34.5031 27.7477C35.1215 27.1837 35.0739 26.5245 35.4001 25.5663C35.6244 24.8935 35.9914 24.3566 36.7253 23.276C37.2146 22.5557 37.636 21.9304 38.2408 21.3256C38.7981 20.7751 39.8379 19.9121 41.5504 19.3344C42.196 19.3344 42.9232 19.3072 43.6504 19.5247C45.1115 19.9596 47.3881 21.0606 50.6569 23.7517C51.3094 24.1527 52.2472 24.642 53.4637 24.9818C54.5714 25.2876 55.5432 25.3692 56.2704 25.3692C56.5626 25.2332 57.0451 24.9886 57.6363 24.6692C60.7013 22.9838 61.4013 21.8081 63.7119 20.9518C64.908 20.5101 65.4992 20.2858 66.3215 20.3878C66.3215 20.3878 67.5924 20.5441 70.9971 23.6498C70.9971 23.6498 68.3127 18.7228 64.6905 18.7364C64.6905 18.7364 54.6461 23.7381 50.9084 20.8363C50.9084 20.8363 45.7707 18.981 44.6018 18.0432C43.4329 17.1053 41.333 15.2365 39.1107 17.5743C36.8205 19.9868 35.5496 21.7877 34.8904 21.5499C34.5167 21.4139 34.7409 20.714 34.0749 19.9664C33.6332 19.4771 33.2458 19.5859 32.573 19.1237C31.9818 18.7228 31.6692 18.2606 31.3294 17.751C30.7517 16.8879 29.2702 14.6928 29.7391 12.4162C30.2013 10.1939 32.1721 9.70459 31.9954 7.93765C31.907 7.0338 31.3498 6.34741 30.9012 5.91248C29.5013 5.3688 28.0945 4.82513 26.6946 4.27466C30.2216 5.85131 31.01 6.97943 30.942 7.76776C30.8401 8.89588 29.1207 8.89588 28.1693 10.8803C27.4897 12.3074 27.6732 13.8161 27.8295 15.1005C27.9314 15.9093 28.0537 16.949 28.6518 18.0975C29.61 19.9324 31.1595 20.8975 32.0022 21.3324C32.1517 21.5363 33.3681 23.2624 32.7089 25.2129C32.4167 26.0895 31.8595 26.6536 31.5265 26.939C31.241 27.6322 30.7245 28.5904 29.7391 29.2157C28.7197 29.8613 28.0741 29.603 26.4771 29.9972C24.0781 30.5816 24.3228 31.4515 22.0801 31.9612C19.3346 32.8787 17.9618 33.334 17.0715 33.232C14.5163 32.9398 12.994 30.2282 12.5659 29.4671C11.9542 28.3798 11.7028 27.3536 11.594 26.6672C13.2658 24.4449 14.2512 22.379 14.8357 20.9043C15.692 18.7567 16.4735 16.7248 16.1949 14.0947C16.059 12.7695 15.692 11.7162 15.3998 11.0094C14.8765 10.1259 13.5717 8.24347 11.1659 7.26486C10.4116 6.95904 9.70478 6.80274 9.09994 6.72798C9.63682 6.93186 11.4785 7.7066 12.5591 9.72498C13.2319 10.9822 13.3066 12.1647 13.3066 12.7899C13.3746 11.8589 13.4357 10.9279 13.5037 9.99681C14.0746 11.2201 14.6658 12.9598 14.693 15.0666C14.7881 21.4683 9.6708 25.641 8.86888 26.273L8.8349 26.2866Z" fill="#51311A"/>
<path d="M9.52781 6.78243C9.57538 6.93194 9.62295 7.10863 9.64334 7.30571C9.72489 7.9785 9.52781 8.52897 9.39189 8.83479C9.39189 8.83479 9.32393 8.42704 9.05209 8.44743C8.78026 8.46102 8.76666 9.20856 6.80944 9.85418C6.80944 9.85418 7.31913 8.68529 7.02691 8.63092C6.74148 8.58335 6.60556 8.97071 5.63375 9.17458C5.63375 9.17458 5.97354 8.73286 5.81724 8.61733C5.66093 8.50179 3.8804 7.36009 3.35712 7.51639C3.35712 7.51639 3.30955 7.52998 3.30275 7.52998C3.29595 7.50279 5.42987 6.86398 5.3755 6.44943C5.36191 6.37467 5.28716 6.3475 5.0561 6.21158C4.65514 5.98052 4.34932 5.76304 4.13865 5.59994C4.13865 5.59994 4.98814 5.41645 4.78426 5.31451C4.58038 5.21257 4.15904 2.65052 4.15904 2.65052C4.15904 2.65052 6.58518 3.61553 6.80944 3.37767C7.02691 3.13982 7.01332 3.00391 7.01332 3.00391C7.01332 3.00391 7.45505 3.64951 7.7065 3.88737C7.95795 4.12522 8.56958 2.63012 8.42007 2.56216C8.27056 2.49421 9.43266 3.78543 9.69091 3.59515C9.94915 3.41166 10.0715 3.28933 10.0715 3.28933C10.0715 3.28933 9.95595 4.0029 10.2889 4.24076C10.6287 4.47861 10.7783 3.90096 10.7783 3.90096C11.2744 4.81161 11.3151 5.75625 10.9142 6.21158C10.8598 6.27274 10.6763 6.46302 10.3909 6.60573C10.0307 6.78242 9.6977 6.79602 9.52781 6.78922V6.78243Z" fill="#313C2D"/>
<path d="M9.75231 7.10863C9.90862 7.06785 10.0853 7.03388 10.2892 7.02708C10.9688 6.9931 11.5057 7.23096 11.7979 7.38727C11.7979 7.38727 11.3833 7.42804 11.3833 7.69987C11.3833 7.97171 12.1241 8.03967 12.6338 10.0377C12.6338 10.0377 11.4989 9.44642 11.4309 9.73185C11.3629 10.0173 11.7367 10.1804 11.8726 11.159C11.8726 11.159 11.4581 10.792 11.329 10.9347C11.1998 11.0774 9.9426 12.7764 10.0581 13.3133C10.0581 13.3133 10.0717 13.3609 10.0649 13.3677C10.0377 13.3745 9.54844 11.193 9.13388 11.227C9.05913 11.227 9.02515 11.3085 8.87564 11.5328C8.61739 11.9133 8.37954 12.2056 8.20284 12.4026C8.20284 12.4026 8.07372 11.5396 7.95819 11.7366C7.84266 11.9337 5.25342 12.1784 5.25342 12.1784C5.25342 12.1784 6.38834 9.82699 6.17087 9.58913C5.9466 9.35128 5.81068 9.35808 5.81068 9.35808C5.81068 9.35808 6.48348 8.96392 6.74172 8.72606C6.99997 8.4882 5.54564 7.77463 5.47089 7.92414C5.38934 8.07365 6.76211 6.9999 6.59221 6.72806C6.42231 6.45622 6.31358 6.3271 6.31358 6.3271C6.31358 6.3271 7.01356 6.49699 7.2786 6.17079C7.53684 5.85138 6.97278 5.65431 6.97278 5.65431C7.91741 5.22616 8.85525 5.24655 9.28339 5.68148C9.33776 5.74265 9.51445 5.93294 9.63678 6.23196C9.78629 6.59894 9.7795 6.93194 9.75911 7.10863H9.75231Z" fill="#45593E"/>
<path d="M5.3212 3.81934C5.40275 3.92808 5.4911 4.05719 5.56585 4.2067C5.83089 4.72319 5.84449 5.22609 5.83089 5.50472C5.83089 5.50472 5.6542 5.19891 5.45712 5.28726C5.25324 5.37561 5.46391 5.98044 4.17949 7.05419C4.17949 7.05419 4.21347 5.96685 3.98241 6.00763C3.75134 6.0484 3.76494 6.40179 3.08534 6.83673C3.08534 6.83673 3.20767 6.38819 3.05816 6.33383C2.90865 6.27946 1.20967 5.87171 0.856285 6.14354C0.856285 6.14354 0.822306 6.17072 0.822306 6.16393C0.808714 6.14354 2.23586 5.02222 2.07275 4.7096C2.04557 4.65524 1.97761 4.64844 1.75335 4.60767C1.37957 4.53291 1.08055 4.44456 0.876673 4.3766C0.876673 4.3766 1.46792 3.98923 1.27763 3.96205C1.09414 3.93487 0 1.99803 0 1.99803C0 1.99803 2.13392 2.08638 2.22906 1.83494C2.3242 1.58349 2.26983 1.47475 2.26983 1.47475C2.26983 1.47475 2.79992 1.86892 3.06496 1.98445C3.33 2.09998 3.34359 0.727203 3.20767 0.720407C3.07175 0.706815 4.34259 1.42038 4.47851 1.19612C4.62122 0.971853 4.67559 0.842728 4.67559 0.842728C4.67559 0.842728 4.79791 1.44756 5.13091 1.54271C5.45712 1.63785 5.40275 1.12816 5.40275 1.12816C6.05516 1.7194 6.36777 2.46695 6.19787 2.94266C6.17748 3.01062 6.09593 3.20771 5.91924 3.40479C5.70177 3.64944 5.45032 3.75138 5.3212 3.79895V3.81934Z" fill="#4D6B42"/>
<path d="M9.82035 26.2186C9.88151 26.3409 9.93588 26.4904 9.97665 26.6535C10.1194 27.2176 10.0242 27.7069 9.94267 27.9787C9.94267 27.9787 9.84073 27.6389 9.62326 27.6797C9.40579 27.7205 9.48055 28.3593 7.98545 29.1204C7.98545 29.1204 8.26408 28.0671 8.02623 28.0603C7.78837 28.0467 7.7272 28.3933 6.97286 28.6719C6.97286 28.6719 7.19712 28.2574 7.06121 28.1758C6.92529 28.0943 5.36223 27.3127 4.96127 27.503C4.96127 27.503 4.92049 27.5234 4.92049 27.5166C4.9069 27.4962 6.55151 26.7215 6.46316 26.3749C6.44957 26.3137 6.38161 26.2934 6.17774 26.205C5.83115 26.0555 5.55931 25.8992 5.37582 25.7837C5.37582 25.7837 6.03502 25.5322 5.85833 25.471C5.68164 25.4031 5.04962 23.2692 5.04962 23.2692C5.04962 23.2692 7.10878 23.8332 7.25829 23.609C7.4078 23.3847 7.38061 23.2692 7.38061 23.2692C7.38061 23.2692 7.80876 23.7721 8.03982 23.9488C8.27088 24.1255 8.59029 22.7867 8.46116 22.7459C8.33204 22.7051 9.41259 23.6769 9.59608 23.4934C9.77957 23.3099 9.86112 23.1944 9.86112 23.1944C9.86112 23.1944 9.84753 23.8128 10.1465 23.9827C10.4456 24.1458 10.4999 23.6429 10.4999 23.6429C11.0028 24.3701 11.1455 25.1584 10.8737 25.5934C10.8397 25.6545 10.7106 25.8312 10.4931 25.9807C10.2281 26.171 9.96306 26.2186 9.82035 26.2322V26.2186Z" fill="#4D6B42"/>
<path d="M13.2111 12.1851C13.2111 12.0832 13.2315 11.9677 13.2654 11.8386C13.3742 11.4104 13.6256 11.1182 13.7751 10.9687C13.7751 10.9687 13.7208 11.2337 13.8839 11.2813C14.047 11.3356 14.2305 10.8803 15.5285 10.9347C15.5285 10.9347 14.9576 11.5327 15.1139 11.6279C15.2702 11.723 15.4401 11.5191 16.0518 11.6143C16.0518 11.6143 15.746 11.8046 15.8071 11.9133C15.8683 12.022 16.643 13.1162 16.9828 13.1434H17.0168C17.0168 13.1638 15.6168 13.0686 15.5489 13.3268C15.5353 13.3744 15.5761 13.4084 15.678 13.5443C15.8547 13.7754 15.9838 13.9793 16.0722 14.122C16.0722 14.122 15.5353 14.0404 15.6304 14.1492C15.7256 14.2579 15.3654 15.9093 15.3654 15.9093C15.3654 15.9093 14.1761 14.7676 13.9926 14.8627C13.8091 14.9579 13.7887 15.0462 13.7887 15.0462C13.7887 15.0462 13.6868 14.5569 13.5916 14.353C13.4965 14.1492 12.7897 14.9171 12.8645 14.9986C12.9392 15.0734 12.5655 14.0268 12.3684 14.0812C12.1713 14.1356 12.0762 14.1831 12.0762 14.1831C12.0762 14.1831 12.314 13.7754 12.1713 13.5579C12.0286 13.3337 11.8043 13.6531 11.8043 13.6531C11.7296 12.9871 11.9267 12.4026 12.2732 12.2191C12.3208 12.1919 12.4703 12.124 12.6742 12.1036C12.9257 12.0764 13.1227 12.1444 13.2247 12.1851H13.2111Z" fill="#4D6B42"/>
<path d="M27.1157 4.4853C27.204 4.53967 27.2924 4.61443 27.3875 4.70957C27.7001 5.02218 27.8293 5.38236 27.8836 5.58624C27.8836 5.58624 27.6866 5.40276 27.5574 5.51829C27.4283 5.63382 27.7273 6.02118 27.0341 7.10853C27.0341 7.10853 26.8099 6.31341 26.6468 6.40176C26.4837 6.4901 26.5788 6.74155 26.1847 7.22406C26.1847 7.22406 26.1711 6.86387 26.0487 6.86387C25.9264 6.86387 24.5876 6.9794 24.3973 7.26483L24.3769 7.29202C24.3634 7.28522 25.1517 6.12312 24.9546 5.93284C24.9206 5.89886 24.873 5.91245 24.6964 5.93284C24.4041 5.97361 24.1663 5.9804 23.9964 5.9804C23.9964 5.9804 24.3362 5.55226 24.1935 5.57945C24.0507 5.60663 22.8003 4.46492 22.8003 4.46492C22.8003 4.46492 24.3837 4.00959 24.3973 3.80571C24.4109 3.59504 24.343 3.53388 24.343 3.53388C24.343 3.53388 24.8187 3.69018 25.0429 3.71057C25.2672 3.73096 24.9546 2.73196 24.8527 2.75915C24.7507 2.78633 25.8449 2.9902 25.8924 2.79312C25.94 2.59604 25.9536 2.4873 25.9536 2.4873C25.9536 2.4873 26.1847 2.89506 26.4497 2.88826C26.7147 2.87467 26.5516 2.52129 26.5516 2.52129C27.1633 2.79312 27.571 3.25524 27.5574 3.64261C27.5574 3.69697 27.5438 3.86008 27.4555 4.05037C27.3536 4.28143 27.1972 4.41735 27.1089 4.4853H27.1157Z" fill="#45593E"/>
<path d="M29.1954 5.26004C29.1138 5.35518 29.0119 5.46392 28.8896 5.56585C28.4682 5.90565 28.0197 6.01438 27.7546 6.05516C27.7546 6.05516 27.9993 5.8377 27.877 5.6678C27.7546 5.4979 27.245 5.81051 26.0013 4.81831C26.0013 4.81831 27.0003 4.64841 26.912 4.43774C26.8236 4.22707 26.511 4.30861 25.9741 3.76494C25.9741 3.76494 26.4091 3.79892 26.4294 3.64261C26.4498 3.4863 26.477 1.8485 26.1508 1.56986C26.1508 1.56986 26.1168 1.54268 26.1236 1.54268C26.1372 1.52229 27.4556 2.63682 27.7071 2.42615C27.7546 2.38537 27.7411 2.3242 27.7343 2.11353C27.7207 1.75335 27.7411 1.46113 27.7682 1.25725C27.7682 1.25725 28.244 1.72617 28.2304 1.54948C28.2168 1.37278 29.7662 0 29.7662 0C29.7662 0 30.1196 1.99121 30.3711 2.03198C30.6225 2.07276 30.7041 2.0048 30.7041 2.0048C30.7041 2.0048 30.4526 2.56886 30.3983 2.8339C30.3439 3.09895 31.6011 2.85429 31.5807 2.73196C31.5604 2.60284 31.1798 3.91446 31.4109 4.0028C31.6419 4.09115 31.771 4.11833 31.771 4.11833C31.771 4.11833 31.241 4.34939 31.2206 4.6688C31.2002 4.98821 31.6555 4.84549 31.6555 4.84549C31.2477 5.55906 30.6293 5.9872 30.1604 5.92604C30.0992 5.91924 29.8954 5.87847 29.6779 5.74935C29.4129 5.59304 29.2633 5.38236 29.1954 5.26683V5.26004Z" fill="#313C2D"/>
<path d="M33.769 19.6946C33.6534 19.7489 33.5175 19.7965 33.3612 19.8305C32.8311 19.9528 32.3826 19.8509 32.1312 19.7693C32.1312 19.7693 32.4506 19.681 32.4098 19.4771C32.3758 19.2732 31.7778 19.3208 31.105 17.8869C31.105 17.8869 32.0768 18.1723 32.0904 17.948C32.104 17.7238 31.7846 17.6558 31.5399 16.9286C31.5399 16.9286 31.9205 17.1529 32.002 17.0238C32.0836 16.8947 32.8311 15.4335 32.668 15.0462C32.668 15.0462 32.6477 15.0122 32.6544 15.0054C32.6748 14.9986 33.3612 16.5753 33.6874 16.4937C33.7486 16.4801 33.7622 16.4189 33.8505 16.2287C34 15.9025 34.1495 15.6442 34.2583 15.4743C34.2583 15.4743 34.4758 16.1063 34.5437 15.9432C34.6049 15.7801 36.6029 15.2297 36.6029 15.2297C36.6029 15.2297 36.0388 17.1733 36.2495 17.3228C36.4534 17.4723 36.5621 17.4451 36.5621 17.4451C36.5621 17.4451 36.0864 17.8393 35.9233 18.0568C35.7602 18.2742 36.9902 18.6072 37.031 18.4849C37.0718 18.3626 36.1475 19.3684 36.3174 19.5451C36.4873 19.7286 36.5893 19.8101 36.5893 19.8101C36.5893 19.8101 36.0116 19.7829 35.8553 20.0616C35.699 20.3402 36.1679 20.4082 36.1679 20.4082C35.4883 20.8703 34.7476 20.9858 34.3466 20.714C34.2923 20.68 34.1292 20.5577 33.9932 20.347C33.8233 20.0887 33.7826 19.8373 33.769 19.7014V19.6946Z" fill="#45593E"/>
<path d="M42.1756 16.6705C42.026 16.6705 41.8561 16.6569 41.6659 16.6297C41.027 16.521 40.5649 16.2355 40.3135 16.0588C40.3135 16.0588 40.7008 16.1132 40.7416 15.9025C40.7824 15.6987 40.096 15.4948 39.8989 13.8842C39.8989 13.8842 40.8707 14.557 40.9795 14.3531C41.0882 14.1492 40.7552 13.9521 40.762 13.1842C40.762 13.1842 41.1018 13.5444 41.2377 13.4628C41.3736 13.3813 42.7872 12.3415 42.7532 11.9133V11.8726C42.7804 11.8726 42.9367 13.6191 43.3241 13.6803C43.392 13.6939 43.4396 13.6395 43.6095 13.5036C43.9017 13.2657 44.1668 13.089 44.357 12.9735C44.357 12.9735 44.357 13.6531 44.493 13.524C44.6289 13.4016 47.0754 13.7279 47.0754 13.7279C47.0754 13.7279 45.6958 15.2841 45.8657 15.5084C46.0424 15.7326 46.1648 15.753 46.1648 15.753C46.1648 15.753 45.4784 15.9161 45.2133 16.0452C44.9483 16.1744 46.1919 17.0035 46.2871 16.9083C46.3822 16.8132 44.9551 17.3501 45.0774 17.5879C45.1997 17.8258 45.2813 17.9481 45.2813 17.9481C45.2813 17.9481 44.6493 17.6831 44.3638 17.8734C44.0784 18.0636 44.5745 18.3219 44.5745 18.3219C43.6367 18.4578 42.76 18.2539 42.427 17.8394C42.3794 17.785 42.2435 17.6015 42.1756 17.3501C42.0872 17.0375 42.1416 16.786 42.1756 16.6637V16.6705Z" fill="#57592E"/>
<path d="M70.6499 23.2149C70.7043 23.1334 70.7722 23.0518 70.8538 22.9635C71.1392 22.6712 71.4586 22.5421 71.6489 22.481C71.6489 22.481 71.4858 22.6645 71.581 22.7732C71.6829 22.8751 72.0363 22.5965 73.0013 23.1538C73.0013 23.1538 72.2809 23.3984 72.3557 23.5343C72.4304 23.6702 72.6615 23.5751 73.0829 23.9013C73.0829 23.9013 72.7634 23.9285 72.7566 24.0372C72.7499 24.146 72.8382 25.3149 73.0829 25.478C73.0829 25.478 73.11 25.4916 73.1032 25.4916C73.0964 25.5051 72.0635 24.8731 71.8936 25.0566C71.8596 25.0906 71.8732 25.1314 71.8936 25.2809C71.9208 25.5323 71.9276 25.743 71.9208 25.8925C71.9208 25.8925 71.547 25.6139 71.5674 25.7362C71.5878 25.8585 70.548 27.0206 70.548 27.0206C70.548 27.0206 70.1674 25.6479 69.9839 25.6479C69.8004 25.6479 69.7393 25.709 69.7393 25.709C69.7393 25.709 69.8888 25.2809 69.9092 25.0838C69.9296 24.8867 69.0325 25.2129 69.0529 25.3013C69.0733 25.3896 69.2771 24.4178 69.1005 24.377C68.9238 24.343 68.8286 24.3362 68.8286 24.3362C68.8286 24.3362 69.2024 24.112 69.1956 23.8809C69.1956 23.6499 68.8694 23.8062 68.8694 23.8062C69.1208 23.2489 69.5422 22.8683 69.8956 22.8615C69.9431 22.8615 70.0927 22.8615 70.2558 22.9295C70.4596 23.011 70.582 23.1402 70.6363 23.2149H70.6499Z" fill="#45593E"/>
<path d="M69.8208 22.0461C69.7393 21.9713 69.6509 21.883 69.5694 21.7675C69.2839 21.3869 69.1956 20.9927 69.1616 20.7617C69.1616 20.7617 69.3451 20.9859 69.4878 20.884C69.6305 20.782 69.3723 20.3267 70.215 19.3005C70.215 19.3005 70.3577 20.1704 70.5344 20.1093C70.7111 20.0481 70.6431 19.7627 71.1052 19.3277C71.1052 19.3277 71.0781 19.7015 71.2004 19.7287C71.3227 19.7559 72.7159 19.851 72.9469 19.586C72.9469 19.586 72.9673 19.5588 72.9741 19.5656C72.9877 19.5792 72.0431 20.6665 72.2198 20.8976C72.2538 20.9383 72.3013 20.9316 72.4848 20.9384C72.7906 20.9452 73.0353 20.9791 73.2052 21.0063C73.2052 21.0063 72.8042 21.4005 72.9537 21.3937C73.1032 21.3937 74.2586 22.7936 74.2586 22.7936C74.2586 22.7936 72.5732 23.0111 72.5392 23.2218C72.5052 23.4393 72.5596 23.514 72.5596 23.514C72.5596 23.514 72.0839 23.2694 71.8596 23.2082C71.6353 23.147 71.8324 24.248 71.9411 24.2412C72.0499 24.2344 70.9489 23.8402 70.8742 24.0373C70.7994 24.2344 70.779 24.3431 70.779 24.3431C70.779 24.3431 70.5888 23.8742 70.3169 23.847C70.0451 23.813 70.1674 24.214 70.1674 24.214C69.5694 23.8266 69.2092 23.2761 69.2636 22.8684C69.2704 22.814 69.3043 22.6441 69.4131 22.4606C69.549 22.2364 69.7257 22.1208 69.8208 22.0665V22.0461Z" fill="#4D6B42"/>
<path d="M44.5135 26.7691C44.4999 26.6332 44.4999 26.4769 44.5135 26.307C44.5747 25.7293 44.8465 25.3148 45.0232 25.0905C45.0232 25.0905 45.0028 25.4439 45.2271 25.4847C45.4582 25.5255 45.6145 24.907 47.3678 24.7507C47.3678 24.7507 46.7154 25.6274 46.9465 25.7225C47.1775 25.8245 47.3678 25.5255 48.2105 25.5459C48.2105 25.5459 47.8435 25.8449 47.9455 25.974C48.0474 26.1031 49.3115 27.3943 49.7804 27.374H49.8279C49.8279 27.3943 47.9251 27.5099 47.8911 27.8633C47.8911 27.9244 47.9455 27.9652 48.1154 28.1283C48.4008 28.4001 48.6183 28.638 48.761 28.8147C48.761 28.8147 48.0202 28.8011 48.1697 28.9302C48.3192 29.0525 48.1697 31.268 48.1697 31.268C48.1697 31.268 46.3348 29.9904 46.1038 30.1399C45.8727 30.2962 45.8591 30.4117 45.8591 30.4117C45.8591 30.4117 45.6145 29.7865 45.4514 29.5418C45.2883 29.2972 44.4864 30.4185 44.6019 30.5001C44.7174 30.5884 43.997 29.2836 43.7456 29.3923C43.4942 29.4943 43.3718 29.569 43.3718 29.569C43.3718 29.569 43.6097 28.9982 43.3718 28.7331C43.134 28.4681 42.8961 28.9166 42.8961 28.9166C42.6583 28.0603 42.8078 27.272 43.2359 26.973C43.2903 26.9322 43.4806 26.8099 43.7524 26.7487C44.0854 26.674 44.364 26.7215 44.5135 26.7623V26.7691Z" fill="#45593E"/>
<path d="M73.26 29.807C73.1648 29.8002 73.0561 29.7799 72.9406 29.7459C72.5464 29.6371 72.2814 29.4129 72.1387 29.277C72.1387 29.277 72.3833 29.3381 72.4241 29.1954C72.4717 29.0595 72.0571 28.8828 72.0843 27.7683C72.0843 27.7683 72.6416 28.2848 72.7231 28.1556C72.8115 28.0265 72.6144 27.8702 72.6959 27.3401C72.6959 27.3401 72.8726 27.6052 72.9746 27.5576C73.0765 27.51 74.0619 26.878 74.0823 26.5858V26.5586C74.0959 26.5586 74.0279 27.7683 74.2726 27.8294C74.3134 27.843 74.3473 27.809 74.4697 27.7207C74.6803 27.5712 74.8638 27.4692 74.9929 27.4013C74.9929 27.4013 74.925 27.8634 75.0269 27.7887C75.1221 27.7071 76.6444 28.0741 76.6444 28.0741C76.6444 28.0741 75.6182 29.0595 75.7065 29.2226C75.7949 29.3857 75.8764 29.4061 75.8764 29.4061C75.8764 29.4061 75.4279 29.4808 75.2444 29.5556C75.0609 29.6303 75.7745 30.2692 75.8424 30.208C75.9104 30.1468 74.959 30.4323 75.0133 30.6022C75.0677 30.7721 75.1085 30.8604 75.1085 30.8604C75.1085 30.8604 74.7347 30.6429 74.5308 30.7585C74.3269 30.874 74.626 31.0779 74.626 31.0779C74.0143 31.1187 73.4843 30.9284 73.3076 30.6293C73.2872 30.5886 73.2124 30.4595 73.192 30.2828C73.1648 30.0653 73.2192 29.8954 73.26 29.8138V29.807Z" fill="#313C2D"/>
<path d="M64.3707 30.6631C64.3299 30.7583 64.2823 30.867 64.2143 30.9825C63.9833 31.3699 63.6775 31.6077 63.5008 31.7233C63.5008 31.7233 63.6299 31.4854 63.5076 31.4039C63.3852 31.3291 63.0794 31.7233 61.9853 31.4514C61.9853 31.4514 62.6649 30.9825 62.5629 30.8602C62.461 30.7447 62.2435 30.9078 61.7474 30.7107C61.7474 30.7107 62.0668 30.5816 62.0464 30.466C62.0261 30.3505 61.7067 29.1748 61.4212 29.0933C61.4212 29.0933 61.394 29.0932 61.394 29.0865C61.394 29.0661 62.5765 29.3991 62.7124 29.1612C62.7396 29.1204 62.7124 29.0797 62.6649 28.9302C62.5833 28.6787 62.5358 28.4612 62.5086 28.3117C62.5086 28.3117 62.9503 28.4816 62.9027 28.3593C62.8552 28.237 63.6843 26.7283 63.6843 26.7283C63.6843 26.7283 64.3503 28.0195 64.5405 27.9583C64.7308 27.8972 64.7784 27.8224 64.7784 27.8224C64.7784 27.8224 64.7172 28.3117 64.7308 28.5156C64.7444 28.7195 65.6007 28.1146 65.5599 28.0263C65.5192 27.9447 65.5124 29.0049 65.6959 28.9845C65.8793 28.9641 65.9813 28.9369 65.9813 28.9369C65.9813 28.9369 65.6483 29.2835 65.7026 29.5214C65.757 29.7592 66.0492 29.4942 66.0492 29.4942C65.8997 30.1466 65.5463 30.6631 65.193 30.7786C65.1454 30.7922 64.9959 30.8398 64.8124 30.8262C64.5881 30.8058 64.4386 30.7107 64.3639 30.6495L64.3707 30.6631Z" fill="#45593E"/>
<path d="M12.7292 67.8912C12.7156 67.7416 12.7088 67.565 12.7292 67.3747C12.7972 66.7359 13.1098 66.2669 13.3069 66.0223C13.3069 66.0223 13.2865 66.4165 13.5515 66.4572C13.8166 66.5048 13.9932 65.8184 16.0252 65.6621C16.0252 65.6621 15.2777 66.6271 15.5495 66.7427C15.8146 66.8582 16.032 66.5252 17.0106 66.5592C17.0106 66.5592 16.5893 66.8922 16.7116 67.0349C16.8339 67.1776 18.3087 68.6387 18.8523 68.6115H18.9067C18.9067 68.6387 16.7048 68.7475 16.6708 69.1416C16.6708 69.2096 16.732 69.2571 16.9291 69.4338C17.2689 69.7397 17.5135 70.0115 17.6834 70.2086C17.6834 70.2086 16.8203 70.1882 16.997 70.3309C17.1737 70.4736 17.0242 72.9405 17.0242 72.9405C17.0242 72.9405 14.8903 71.493 14.6253 71.6629C14.3602 71.8328 14.3466 71.9619 14.3466 71.9619C14.3466 71.9619 14.0612 71.2619 13.8641 70.9901C13.667 70.7183 12.7564 71.9551 12.8855 72.0503C13.0214 72.1454 12.1719 70.6911 11.8865 70.8066C11.5943 70.9221 11.4584 71.0037 11.4584 71.0037C11.4584 71.0037 11.7302 70.3717 11.4584 70.0727C11.1797 69.7736 10.9079 70.2765 10.9079 70.2765C10.6293 69.3183 10.7924 68.4416 11.2749 68.1086C11.3428 68.0611 11.5535 67.9319 11.8661 67.864C12.2535 67.7824 12.5729 67.8436 12.7428 67.8844L12.7292 67.8912Z" fill="#41472D"/>
<path d="M34.4348 86.1993C34.2377 86.1721 34.0134 86.1178 33.7756 86.0362C32.9668 85.7644 32.4232 85.2819 32.1377 84.9829C32.1377 84.9829 32.6338 85.1324 32.7358 84.8537C32.8377 84.5819 31.9882 84.1673 32.1241 81.9179C32.1241 81.9179 33.2387 83.0324 33.429 82.7742C33.6192 82.5159 33.2319 82.1829 33.429 81.1228C33.429 81.1228 33.7823 81.6868 33.9862 81.5985C34.1901 81.5101 36.2968 80.3616 36.358 79.7636C36.358 79.7636 36.358 79.7092 36.3648 79.7092C36.3988 79.7092 36.1745 82.149 36.6774 82.3053C36.7658 82.3325 36.8337 82.2781 37.0988 82.115C37.5405 81.8432 37.9346 81.6597 38.2133 81.5373C38.2133 81.5373 38.0434 82.4684 38.2541 82.3189C38.4647 82.1761 41.5976 83.1072 41.5976 83.1072C41.5976 83.1072 39.3958 84.9761 39.5725 85.3159C39.7492 85.6557 39.9123 85.71 39.9123 85.71C39.9123 85.71 38.9744 85.8052 38.5871 85.9275C38.1997 86.0498 39.6404 87.4362 39.7899 87.3207C39.9394 87.2051 37.9346 87.6672 38.0298 88.0206C38.1249 88.374 38.2133 88.5507 38.2133 88.5507C38.2133 88.5507 37.4453 88.0614 37.024 88.2653C36.5959 88.476 37.1939 88.9245 37.1939 88.9245C35.9231 88.9245 34.8289 88.476 34.4823 87.8439C34.4348 87.7556 34.3056 87.4838 34.2717 87.1236C34.2309 86.6818 34.36 86.3488 34.4483 86.1789L34.4348 86.1993Z" fill="#41472D"/>
<path d="M29.3158 45.1183C29.1935 45.1659 29.0508 45.2135 28.8877 45.2475C28.3304 45.363 27.8615 45.2747 27.5965 45.2135C27.5965 45.2135 27.9295 45.1319 27.8955 44.9484C27.8615 44.765 27.2431 44.8193 26.5635 43.5621C26.5635 43.5621 27.5761 43.7999 27.5965 43.6029C27.6168 43.4058 27.2838 43.3446 27.046 42.7126C27.046 42.7126 27.4401 42.9029 27.5217 42.7873C27.6033 42.6718 28.4256 41.3738 28.2625 41.034C28.2625 41.034 28.2421 41 28.2489 41C28.2693 40.9932 28.9556 42.3796 29.2954 42.298C29.3566 42.2844 29.377 42.2301 29.4721 42.0602C29.6352 41.768 29.7983 41.5437 29.9139 41.3874C29.9139 41.3874 30.1313 41.9447 30.1993 41.7951C30.2672 41.6456 32.3672 41.1359 32.3672 41.1359C32.3672 41.1359 31.7352 42.8553 31.9526 42.9844C32.1633 43.1136 32.2788 43.0864 32.2788 43.0864C32.2788 43.0864 31.7759 43.4398 31.5925 43.63C31.409 43.8203 32.7002 44.1057 32.741 43.997C32.7885 43.8883 31.7963 44.7853 31.973 44.9416C32.1497 45.098 32.2517 45.1659 32.2517 45.1659C32.2517 45.1659 31.6536 45.1455 31.4769 45.397C31.307 45.6484 31.7963 45.696 31.7963 45.696C31.076 46.1105 30.2944 46.2193 29.8867 45.9882C29.8323 45.9542 29.6624 45.8523 29.5265 45.6688C29.3566 45.4445 29.3158 45.2203 29.309 45.1048L29.3158 45.1183Z" fill="#45593E"/>
<path d="M177.292 50.4189C177.108 50.4053 176.904 50.3781 176.687 50.3237C175.932 50.1402 175.396 49.7461 175.11 49.5082C175.11 49.5082 175.572 49.6034 175.64 49.3587C175.708 49.1073 174.906 48.8082 174.825 46.817C174.825 46.817 175.932 47.7209 176.082 47.483C176.231 47.2452 175.851 46.9733 175.932 46.0355C175.932 46.0355 176.306 46.5112 176.483 46.4161C176.66 46.3209 178.454 45.1724 178.461 44.6491V44.6016C178.495 44.6016 178.508 46.7559 178.977 46.8646C179.059 46.885 179.113 46.8306 179.337 46.6675C179.711 46.4025 180.051 46.2122 180.289 46.0831C180.289 46.0831 180.221 46.9122 180.397 46.7695C180.574 46.6267 183.483 47.2384 183.483 47.2384C183.483 47.2384 181.668 49.0257 181.852 49.3179C182.042 49.6034 182.191 49.6441 182.191 49.6441C182.191 49.6441 181.356 49.7868 181.016 49.9228C180.676 50.0587 182.103 51.18 182.225 51.0645C182.348 50.9557 180.581 51.4926 180.703 51.7984C180.825 52.0975 180.914 52.2538 180.914 52.2538C180.914 52.2538 180.18 51.8732 179.813 52.0839C179.446 52.2945 180.024 52.6547 180.024 52.6547C178.875 52.7431 177.849 52.4237 177.482 51.8868C177.434 51.812 177.285 51.581 177.224 51.2684C177.149 50.881 177.237 50.582 177.298 50.4257L177.292 50.4189Z" fill="#4D6B42"/>
<path d="M182.137 61.204C182.035 61.1768 181.92 61.136 181.804 61.0817C181.397 60.8914 181.131 60.6128 180.989 60.4497C180.989 60.4497 181.24 60.5584 181.308 60.4225C181.369 60.2933 180.948 60.0351 181.098 58.9138C181.098 58.9138 181.634 59.5458 181.743 59.4303C181.852 59.3147 181.662 59.1177 181.804 58.6012C181.804 58.6012 181.967 58.907 182.076 58.873C182.185 58.839 183.32 58.4041 183.374 58.1051C183.374 58.1051 183.374 58.0779 183.381 58.0779C183.401 58.0779 183.191 59.2876 183.449 59.3963C183.496 59.4167 183.53 59.3963 183.673 59.3283C183.911 59.2196 184.122 59.1516 184.271 59.1109C184.271 59.1109 184.149 59.5662 184.264 59.505C184.38 59.4439 185.97 60.1099 185.97 60.1099C185.97 60.1099 184.761 60.905 184.835 61.0885C184.91 61.272 184.998 61.3059 184.998 61.3059C184.998 61.3059 184.509 61.2923 184.298 61.3331C184.088 61.3739 184.788 62.1554 184.869 62.1079C184.951 62.0603 183.891 62.1622 183.931 62.3457C183.972 62.5292 184.006 62.6243 184.006 62.6243C184.006 62.6243 183.626 62.3321 183.401 62.4069C183.17 62.4816 183.462 62.7467 183.462 62.7467C182.803 62.6651 182.246 62.3729 182.097 62.0331C182.076 61.9855 182.015 61.8428 182.015 61.6593C182.015 61.4351 182.09 61.2788 182.144 61.1972L182.137 61.204Z" fill="#45593E"/>
<path d="M180.737 61.9514C180.751 62.0806 180.751 62.2233 180.737 62.3864C180.683 62.9301 180.445 63.331 180.288 63.5485C180.288 63.5485 180.309 63.2155 180.105 63.1883C179.901 63.1611 179.765 63.7456 178.223 63.9359C178.223 63.9359 178.793 63.0932 178.59 63.0116C178.386 62.9233 178.223 63.2087 177.475 63.2155C177.475 63.2155 177.801 62.9233 177.706 62.8077C177.611 62.6922 176.496 61.5097 176.089 61.5505H176.048C176.048 61.5301 177.726 61.367 177.754 61.034C177.754 60.9728 177.706 60.9389 177.557 60.7961C177.305 60.5515 177.115 60.3272 176.986 60.1709C176.986 60.1709 177.638 60.1573 177.509 60.0486C177.38 59.9331 177.502 57.8535 177.502 57.8535C177.502 57.8535 179.12 59.002 179.323 58.8457C179.527 58.6962 179.534 58.5875 179.534 58.5875C179.534 58.5875 179.752 59.1651 179.894 59.3894C180.037 59.6137 180.744 58.5399 180.642 58.4652C180.54 58.3904 181.179 59.5865 181.396 59.4777C181.62 59.369 181.722 59.2942 181.722 59.2942C181.722 59.2942 181.512 59.8379 181.722 60.0758C181.933 60.3136 182.144 59.8855 182.144 59.8855C182.354 60.6806 182.225 61.4282 181.852 61.7204C181.804 61.7612 181.634 61.8767 181.396 61.9447C181.104 62.0262 180.859 61.9854 180.73 61.9514H180.737Z" fill="#4D6B42"/>
<path d="M176.184 50.2761C176.123 50.412 176.041 50.5615 175.933 50.7178C175.566 51.2479 175.11 51.5537 174.845 51.7032C174.845 51.7032 175.056 51.3702 174.886 51.2479C174.716 51.1256 174.247 51.6624 172.705 51.1663C172.705 51.1663 173.724 50.5615 173.588 50.3848C173.452 50.2013 173.133 50.4256 172.433 50.0926C172.433 50.0926 172.902 49.9363 172.888 49.7732C172.874 49.6101 172.521 47.8975 172.113 47.748C172.113 47.748 172.073 47.7344 172.079 47.7276C172.093 47.7004 173.744 48.2985 173.962 47.9655C174.003 47.9043 173.975 47.8499 173.921 47.6325C173.826 47.2655 173.778 46.9529 173.758 46.7354C173.758 46.7354 174.37 47.0208 174.315 46.8441C174.261 46.6674 175.579 44.5879 175.579 44.5879C175.579 44.5879 176.415 46.4975 176.687 46.4296C176.966 46.3684 177.034 46.2597 177.034 46.2597C177.034 46.2597 176.898 46.9461 176.904 47.2519C176.911 47.5577 178.189 46.7626 178.135 46.6403C178.087 46.5179 177.978 48.0334 178.243 48.0266C178.508 48.0198 178.651 47.9926 178.651 47.9926C178.651 47.9926 178.141 48.4548 178.196 48.7946C178.25 49.1344 178.692 48.7946 178.692 48.7946C178.42 49.7052 177.869 50.412 177.353 50.5479C177.285 50.5683 177.061 50.6159 176.803 50.5751C176.483 50.5275 176.279 50.3712 176.177 50.2829L176.184 50.2761Z" fill="#57592E"/>
<path d="M165.419 55.9372C165.46 56.1139 165.501 56.311 165.508 56.5352C165.548 57.2964 165.297 57.908 165.127 58.2342C165.127 58.2342 165.08 57.7721 164.787 57.7721C164.495 57.7721 164.42 58.6148 162.28 59.206C162.28 59.206 162.912 57.9216 162.606 57.8468C162.3 57.7721 162.123 58.2002 161.07 58.3633C161.07 58.3633 161.464 57.8876 161.308 57.7449C161.152 57.6022 159.317 56.2022 158.739 56.3381C158.739 56.3381 158.685 56.3517 158.685 56.3449C158.678 56.3177 161.022 55.7401 160.988 55.2712C160.988 55.1896 160.9 55.1489 160.655 54.979C160.241 54.6935 159.928 54.4217 159.711 54.2314C159.711 54.2314 160.635 54.0819 160.424 53.9528C160.214 53.8237 159.935 50.9082 159.935 50.9082C159.935 50.9082 162.477 52.1587 162.735 51.9072C162.986 51.6558 162.98 51.4995 162.98 51.4995C162.98 51.4995 163.408 52.2538 163.666 52.5392C163.924 52.8247 164.685 51.1868 164.529 51.0985C164.373 51.0101 165.528 52.5392 165.82 52.3489C166.113 52.1587 166.248 52.0295 166.248 52.0295C166.248 52.0295 166.072 52.8247 166.418 53.1169C166.765 53.4091 166.969 52.7703 166.969 52.7703C167.438 53.8304 167.417 54.8906 166.955 55.3731C166.894 55.4411 166.683 55.6382 166.364 55.7809C165.963 55.9576 165.61 55.9508 165.419 55.9304V55.9372Z" fill="#6D6131"/>
<path d="M17.0635 39.0018V35.9999C18.4227 36.0474 20.2181 35.9844 21.0744 35.8553C21.7812 35.7466 23.1268 35.5291 24.6967 34.9174C25.2607 34.6932 25.6549 34.5029 26.5995 34.1631C27.6257 33.7961 28.1965 33.6602 28.5024 33.5922C29.046 33.4699 29.2635 33.4631 30.0043 33.3544C31.8324 33.0893 32.777 32.8107 32.8042 32.9127C32.8382 33.035 31.4654 33.3136 29.9771 34.5301C29.6373 34.8087 29.5965 34.9039 29.1955 35.2504C28.0063 36.2834 26.9325 36.9562 26.3073 37.3232C23.7248 38.8251 21.7336 37.8805 21.2171 39.0562C21.122 39.2668 21.1016 39.7629 21.0676 40.7687C21.0269 42.1007 21.1424 42.9978 21.054 43.0046C20.9793 43.0182 20.8909 42.325 20.49 41.3328C20.1638 40.5241 19.6677 39.6134 19.4026 39.6746C19.3143 39.695 19.3279 39.8105 19.2259 39.8717C19.0628 39.9736 18.6823 39.8921 17.7105 39.0018H17.0635Z" fill="#D19F61"/>
</svg>
