<svg width="162" height="58" viewBox="0 0 162 58" fill="none" xmlns="http://www.w3.org/2000/svg">
<path d="M143 2H5C2.79086 2 1 3.79086 1 6V54C1 56.2091 2.79086 58 5 58H143C145.209 58 147 56.2091 147 54V6C147 3.79086 145.209 2 143 2Z" fill="#FAEBDC"/>
<path d="M155.363 41.5833C155.297 41.4634 155.232 41.3207 155.18 41.1608C155.01 40.607 155.127 40.1275 155.219 39.8592C155.219 39.8592 155.336 40.1903 155.591 40.1446C155.847 40.0989 155.768 39.4767 157.54 38.7117C157.54 38.7117 157.213 39.745 157.494 39.7564C157.775 39.7678 157.854 39.4253 158.75 39.1456C158.75 39.1456 158.482 39.5509 158.645 39.6308C158.809 39.7107 160.659 40.4529 161.136 40.2645L161.182 40.2474C161.195 40.2702 159.24 41.0466 159.351 41.3892C159.371 41.452 159.449 41.4634 159.691 41.549C160.103 41.6917 160.424 41.8402 160.646 41.9487C160.646 41.9487 159.861 42.1998 160.071 42.2626C160.28 42.3254 161.025 44.4092 161.025 44.4092C161.025 44.4092 158.58 43.884 158.403 44.1066C158.227 44.3293 158.259 44.4435 158.259 44.4435C158.259 44.4435 157.756 43.9582 157.481 43.7869C157.207 43.6157 156.821 44.9344 156.978 44.9744C157.135 45.0143 155.853 44.0724 155.631 44.2608C155.408 44.4435 155.31 44.5576 155.31 44.5576C155.31 44.5576 155.33 43.9525 154.977 43.7926C154.624 43.6328 154.552 44.1295 154.552 44.1295C153.957 43.4273 153.793 42.6508 154.114 42.2227C154.159 42.1656 154.303 41.9886 154.565 41.8345C154.885 41.6461 155.199 41.5947 155.363 41.5776V41.5833Z" fill="#313C2D"/>
<path d="M143.734 1H4.26637C2.4624 1 1 2.26819 1 3.83257V54.1674C1 55.7318 2.4624 57 4.26637 57H143.734C145.538 57 147 55.7318 147 54.1674V3.83257C147 2.26819 145.538 1 143.734 1Z" stroke="#D19F61" stroke-width="2" stroke-miterlimit="10"/>
<path d="M150.851 33.6781C151.106 33.9179 151.381 34.1691 151.636 34.4374C151.799 34.5117 151.963 34.5859 152.126 34.6544C152.348 34.7514 152.571 34.8485 152.806 34.9284C152.891 34.957 152.976 34.9855 153.055 35.0141C153.094 34.9284 153.133 34.8371 153.14 34.7971C153.185 34.643 153.192 34.4831 153.185 34.329C153.172 34.0036 153.1 33.6839 153.094 33.3585C153.094 33.2614 153.637 33.1472 153.709 33.1986L153.722 33.21C153.937 33.3642 154.107 33.5526 154.304 33.7238C154.389 33.798 154.487 33.8437 154.578 33.8951C154.742 33.7866 154.951 33.7295 155.16 33.7295C155.121 33.4041 155.154 33.0844 155.513 32.9074C155.664 32.8332 155.866 32.7761 156.063 32.7647C156.063 32.7647 156.063 32.759 156.063 32.7533C154.905 31.052 154.82 30.9264 154.82 30.9264C154.225 30.0358 153.61 28.2661 153.558 24.4354C152.721 26.6847 152.702 28.386 152.865 29.5677C152.911 29.9103 153.094 30.6182 152.721 30.8408C152.322 31.0806 151.577 30.5896 150.171 29.9559C149.105 29.4764 148.196 29.1624 147.588 28.9683C146.627 28.9511 144.973 28.8141 143.174 28.0606C141.821 27.4954 139.99 26.719 139.663 25.286C139.415 24.1785 140.219 23.168 141.134 22.0091C141.52 21.5238 142.135 20.8444 143.671 19.6912C144.711 18.9148 146.228 17.8815 148.249 16.8311C146.973 17.322 139.349 20.3192 137.048 23.7674C136.714 24.2641 136.158 25.1261 136.341 26.1538C136.57 27.4211 137.767 28.2432 139.094 29.1395C139.872 29.6648 141.089 30.3727 142.782 30.9322C143.835 30.8979 145.528 30.9664 147.399 31.6458C148.065 31.8855 149.517 32.4279 150.858 33.6781H150.851Z" fill="#513119"/>
<path d="M156.618 36.0571C156.618 36.0571 156.566 36.0228 156.533 36C156.272 36.2398 156.285 36.6622 156.245 36.9648C156.232 37.0562 155.624 37.0562 155.592 36.9648C155.559 36.8735 155.441 36.7878 155.422 36.7136C155.422 36.7136 155.415 36.7079 155.409 36.7022C155.376 36.7193 155.337 36.7308 155.31 36.7365C155.127 36.7935 154.859 36.7935 154.676 36.7365C154.5 36.6851 154.369 36.5823 154.258 36.451C154.14 37.0105 153.924 37.5643 153.218 37.5414C152.917 37.5357 152.649 37.3816 152.401 37.2046C152.643 37.844 152.747 38.5177 152.531 39.2199C152.061 40.7327 150.243 41.8402 148.026 42.1828L148 47.0411C148.981 46.6757 155.755 44.0268 156.795 38.5976C156.926 37.9296 156.971 37.1075 156.847 36.1713C156.762 36.137 156.69 36.1028 156.612 36.0457L156.618 36.0571Z" fill="#513119"/>
<path d="M146.719 16.5451C146.542 16.5323 146.346 16.5066 146.137 16.4553C145.411 16.2821 144.894 15.9101 144.62 15.6856C144.62 15.6856 145.064 15.7754 145.13 15.5445C145.195 15.3072 144.424 15.0249 144.345 13.1455C144.345 13.1455 145.411 13.9986 145.555 13.7741C145.699 13.5496 145.333 13.293 145.411 12.4079C145.411 12.4079 145.771 12.8569 145.941 12.7671C146.111 12.6773 147.837 11.5932 147.843 11.0993V11.0544C147.876 11.0544 147.889 13.0878 148.34 13.1904C148.419 13.2097 148.471 13.1583 148.687 13.0044C149.047 12.7542 149.374 12.5746 149.602 12.4528C149.602 12.4528 149.537 13.2353 149.707 13.1006C149.877 12.9659 152.676 13.5432 152.676 13.5432C152.676 13.5432 150.93 15.2302 151.106 15.506C151.289 15.7754 151.433 15.8139 151.433 15.8139C151.433 15.8139 150.629 15.9486 150.302 16.0769C149.975 16.2052 151.348 17.2635 151.466 17.1545C151.584 17.0519 149.884 17.5586 150.001 17.8472C150.119 18.1295 150.204 18.277 150.204 18.277C150.204 18.277 149.498 17.9178 149.145 18.1166C148.792 18.3155 149.347 18.6554 149.347 18.6554C148.242 18.7388 147.255 18.4374 146.902 17.9306C146.856 17.8601 146.712 17.642 146.653 17.3469C146.582 16.9813 146.667 16.6991 146.725 16.5515L146.719 16.5451Z" fill="#4D6B42"/>
<path d="M153.473 25.6278C153.375 25.6022 153.264 25.5637 153.153 25.5124C152.76 25.3328 152.505 25.0698 152.368 24.9159C152.368 24.9159 152.61 25.0185 152.675 24.8902C152.734 24.7683 152.329 24.5246 152.473 23.4662C152.473 23.4662 152.989 24.0627 153.094 23.9537C153.199 23.8447 153.015 23.6586 153.153 23.1712C153.153 23.1712 153.31 23.4598 153.414 23.4277C153.519 23.3957 154.611 22.9851 154.663 22.7029C154.663 22.7029 154.663 22.6772 154.67 22.6772C154.689 22.6772 154.487 23.819 154.735 23.9216C154.781 23.9409 154.814 23.9216 154.951 23.8575C155.18 23.7549 155.383 23.6907 155.526 23.6522C155.526 23.6522 155.409 24.082 155.52 24.0243C155.631 23.9665 157.161 24.5951 157.161 24.5951C157.161 24.5951 155.997 25.3456 156.069 25.5188C156.141 25.692 156.226 25.7241 156.226 25.7241C156.226 25.7241 155.755 25.7112 155.553 25.7497C155.35 25.7882 156.023 26.5259 156.102 26.481C156.18 26.4361 155.16 26.5323 155.199 26.7055C155.239 26.8786 155.271 26.9684 155.271 26.9684C155.271 26.9684 154.905 26.6926 154.689 26.7632C154.467 26.8337 154.748 27.0839 154.748 27.0839C154.114 27.0069 153.578 26.7311 153.434 26.4104C153.414 26.3655 153.356 26.2308 153.356 26.0576C153.356 25.8459 153.427 25.6984 153.48 25.6214L153.473 25.6278Z" fill="#45593E"/>
<path d="M153.545 24.3256C153.558 24.4475 153.558 24.5822 153.545 24.7361C153.493 25.2493 153.264 25.6277 153.113 25.833C153.113 25.833 153.133 25.5187 152.937 25.493C152.741 25.4674 152.61 26.019 151.126 26.1986C151.126 26.1986 151.675 25.4032 151.479 25.3262C151.283 25.2429 151.126 25.5123 150.406 25.5187C150.406 25.5187 150.72 25.2429 150.629 25.1338C150.537 25.0248 149.465 23.9087 149.072 23.9472H149.033C149.033 23.9279 150.648 23.774 150.674 23.4597C150.674 23.4019 150.629 23.3699 150.485 23.2352C150.243 23.0042 150.06 22.7926 149.936 22.645C149.936 22.645 150.563 22.6322 150.439 22.5296C150.315 22.4206 150.433 20.4578 150.433 20.4578C150.433 20.4578 151.989 21.5418 152.185 21.3943C152.381 21.2531 152.388 21.1505 152.388 21.1505C152.388 21.1505 152.597 21.6957 152.734 21.9074C152.872 22.1191 153.552 21.1056 153.453 21.0351C153.355 20.9645 153.97 22.0934 154.179 21.9908C154.395 21.8882 154.493 21.8176 154.493 21.8176C154.493 21.8176 154.29 22.3307 154.493 22.5552C154.696 22.7797 154.899 22.3756 154.899 22.3756C155.101 23.1261 154.977 23.8317 154.617 24.1075C154.572 24.146 154.408 24.255 154.179 24.3192C153.898 24.3962 153.663 24.3577 153.538 24.3256H153.545Z" fill="#4D6B42"/>
<path d="M146.614 16.0448C146.555 16.1731 146.477 16.3142 146.372 16.4618C146.019 16.9621 145.581 17.2507 145.326 17.3918C145.326 17.3918 145.529 17.0775 145.365 16.9621C145.202 16.8466 144.751 17.3534 143.266 16.8851C143.266 16.8851 144.247 16.3142 144.116 16.1475C143.986 15.9743 143.678 16.1859 143.005 15.8716C143.005 15.8716 143.456 15.7241 143.443 15.5702C143.43 15.4162 143.09 13.7998 142.697 13.6587C142.697 13.6587 142.658 13.6459 142.665 13.6394C142.678 13.6138 144.267 14.1783 144.476 13.864C144.515 13.8062 144.489 13.7549 144.437 13.5496C144.345 13.2033 144.3 12.9082 144.28 12.703C144.28 12.703 144.868 12.9724 144.816 12.8056C144.764 12.6388 146.032 10.676 146.032 10.676C146.032 10.676 146.837 12.4785 147.098 12.4143C147.366 12.3566 147.432 12.2539 147.432 12.2539C147.432 12.2539 147.301 12.9018 147.307 13.1904C147.314 13.4791 148.543 12.7286 148.491 12.6132C148.445 12.4977 148.341 13.9281 148.596 13.9217C148.851 13.9153 148.988 13.8896 148.988 13.8896C148.988 13.8896 148.497 14.3258 148.55 14.6465C148.602 14.9672 149.027 14.6465 149.027 14.6465C148.766 15.506 148.236 16.1731 147.739 16.3014C147.674 16.3206 147.458 16.3655 147.209 16.3271C146.902 16.2822 146.706 16.1346 146.608 16.0512L146.614 16.0448Z" fill="#57592E"/>
<path d="M136.629 25.5637C136.668 25.7305 136.707 25.9165 136.714 26.1282C136.753 26.8466 136.511 27.4239 136.348 27.7318C136.348 27.7318 136.302 27.2956 136.021 27.2956C135.74 27.2956 135.668 28.091 133.608 28.649C133.608 28.649 134.216 27.4367 133.922 27.3662C133.628 27.2956 133.458 27.6997 132.444 27.8537C132.444 27.8537 132.823 27.4047 132.673 27.27C132.523 27.1353 130.757 25.8139 130.201 25.9422C130.201 25.9422 130.149 25.955 130.149 25.9486C130.142 25.923 132.398 25.3777 132.366 24.9351C132.366 24.8582 132.281 24.8197 132.045 24.6593C131.646 24.3899 131.346 24.1334 131.136 23.9538C131.136 23.9538 132.026 23.8126 131.823 23.6908C131.62 23.5689 131.352 20.8171 131.352 20.8171C131.352 20.8171 133.798 21.9974 134.046 21.76C134.288 21.5227 134.282 21.3752 134.282 21.3752C134.282 21.3752 134.693 22.0872 134.942 22.3566C135.19 22.626 135.923 21.0801 135.772 20.9967C135.622 20.9134 136.734 22.3566 137.015 22.177C137.296 21.9974 137.427 21.8755 137.427 21.8755C137.427 21.8755 137.257 22.626 137.59 22.9018C137.924 23.1776 138.12 22.5747 138.12 22.5747C138.571 23.5753 138.551 24.5759 138.107 25.0314C138.048 25.0955 137.845 25.2815 137.538 25.4162C137.152 25.583 136.812 25.5766 136.629 25.5573V25.5637Z" fill="#6D6131"/>
<path d="M157.991 36.2115L158.429 35.8972C158.429 35.8972 158.697 35.4931 158.619 35.3713C158.54 35.2494 157.991 36.2115 157.991 36.2115Z" fill="#513119"/>
<path d="M157.573 35.23L157.874 34.781C157.874 34.781 158.018 33.9856 157.926 33.7483L157.737 34.1652V33.4468C157.737 33.4468 157.39 33.9407 157.403 34.2165C157.416 34.4923 157.626 34.7168 157.626 34.7168L157.573 35.23Z" fill="#513119"/>
<path d="M153.055 37.0518L152.29 36.8145L152.074 36.8529L152.689 37.0518H153.055Z" fill="#513119"/>
<path d="M154.004 37.3662L153.565 37.533H153.781L154.004 37.3662Z" fill="#513119"/>
<path d="M152.832 37.9305L152.309 37.8984C152.309 37.8984 151.557 37.5777 151.394 37.3853L151.838 37.4815L151.217 37.103C151.217 37.103 151.793 37.1287 152.028 37.2826C152.264 37.4366 152.368 37.6996 152.368 37.6996L152.832 37.9369V37.9305Z" fill="#513119"/>
<path d="M156.252 37.2442L156.213 36.9876C156.213 36.9876 156.311 36.5964 156.396 36.5001V36.7247L156.533 36.3911C156.533 36.3911 156.579 36.6733 156.52 36.8016C156.461 36.9299 156.331 36.9941 156.331 36.9941L156.252 37.2378V37.2442Z" fill="#513119"/>
<path d="M154.336 34.8389V35.2302V35.4739L154.585 35.8972L154.768 35.538L154.336 34.8389Z" fill="#513119"/>
</svg>
